<svg id="Layer_1" data-name="Layer 1" xmlns="http://www.w3.org/2000/svg" viewBox="0 0 286.41 279.34"><defs><style>.cls-1{fill:#e3dfe9;fill-rule:evenodd;}</style></defs><path class="cls-1" d="M143.2,0A143.22,143.22,0,0,0,97.94,279.09c7.16,1.32,9.77-3.1,9.77-6.9,0-3.4-.12-12.4-.19-24.36-39.83,8.66-48.24-19.19-48.24-19.19-6.51-16.55-15.9-20.95-15.9-20.95-13-8.89,1-8.71,1-8.71,14.38,1,21.94,14.76,21.94,14.76,12.77,21.89,33.52,15.57,41.68,11.9,1.3-9.25,5-15.56,9.09-19.14-31.8-3.62-65.23-15.9-65.23-70.78A55.37,55.37,0,0,1,66.58,97.29c-1.47-3.62-6.39-18.18,1.4-37.9,0,0,12-3.85,39.38,14.68a135.77,135.77,0,0,1,71.71,0c27.34-18.53,39.34-14.68,39.34-14.68,7.81,19.72,2.9,34.28,1.42,37.9a55.26,55.26,0,0,1,14.72,38.43c0,55-33.48,67.12-65.38,70.67,5.14,4.42,9.72,13.16,9.72,26.51,0,19.15-.18,34.6-.18,39.29,0,3.83,2.58,8.29,9.85,6.89A143.23,143.23,0,0,0,143.2,0Z"/></svg>