<svg id="Layer_1" data-name="Layer 1" xmlns="http://www.w3.org/2000/svg" viewBox="0 0 287.31 287.09"><defs><style>.cls-1{fill:#e3dfe9;}</style></defs><path class="cls-1" d="M265.93,0c10.88,0,19.66,7.72,21.12,17.28.16,1.06.27,167.35.26,249.42a20.44,20.44,0,0,1-19.5,20.36c-.72,0-164.91,0-246.29,0-10.22,0-17.94-5.48-20.62-14.74C.33,270.41,0,102.68,0,20.88A20.34,20.34,0,0,1,20.45.11C30.31,0,225.16.2,265.93,0ZM153.21,125.27c0-4.93-.11-9.85,0-14.77.09-2.5-.76-3.2-3.22-3.18-11.65.12-23.3.05-34.95.06-3.56,0-3.58,0-3.58,3.51q0,65.45-.06,130.89c0,2.75.85,3.53,3.53,3.5,12.09-.11,24.19,0,36.29-.05,3.59,0,3.6,0,3.6-3.53,0-21.95-.06-43.9,0-65.85.06-12,1.82-25.91,13.72-32a23.18,23.18,0,0,1,22.29.92c10.68,6.6,10.86,18,11,29.21.19,22.58.12,45.15,0,67.73,0,2.7.82,3.57,3.53,3.54q18.15-.18,36.3,0c2.61,0,3.54-.63,3.53-3.45-.11-26.16.2-52.32-.21-78.47a126.45,126.45,0,0,0-3.26-26c-6.94-30.3-45.28-41.93-71.22-28A50.77,50.77,0,0,0,153.21,125.27Zm-111.11,51c0,21.94,0,43.89-.05,65.83,0,2.23.47,3.23,2.93,3.21q18.81-.14,37.63,0c2.25,0,2.88-.85,2.88-3q-.08-66,0-131.92c0-2.42-.83-3-3.12-3-12.36.1-24.72.12-37.08,0-2.67,0-3.27.85-3.26,3.37C42.13,132.53,42.1,154.38,42.1,176.23ZM63.73,89A24.93,24.93,0,1,0,38.85,64.15,24.79,24.79,0,0,0,63.73,89Z"/></svg>