<svg xmlns="http://www.w3.org/2000/svg" viewBox="0 0 67.57 69.1"><defs><style>.cls-1{fill:#0a6dc6;}.cls-2{fill:#167ddb;}.cls-3{fill:#2a91d1;}</style></defs><g id="shapes"><path class="cls-1" d="M34,4A31,31,0,1,0,65,35,31,31,0,0,0,34,4Zm0,44.42c-6.05,0-11-6-11-13.43S28,21.57,34,21.57,45,27.58,45,35,40.08,48.43,34,48.43Z"/><path class="cls-2" d="M31.94,4C15.78,4,2.68,17.54,2.68,34.22s13.1,30.2,29.26,30.2S61.2,50.9,61.2,34.22,48.1,4,31.94,4Zm0,49.39c-10.27,0-18.59-8.59-18.59-19.18S21.67,15,31.94,15s18.58,8.59,18.58,19.19S42.2,53.4,31.94,53.4Z"/><path class="cls-3" d="M5.72,36.6l0-.36c0-.25,0-.49,0-.74,0-.42,0-.85,0-1.28s0-1.12,0-1.68v-.06C6.53,18.05,18.2,5.38,32.56,4.05L31.45,4C15.78,4,2.68,18.07,2.68,34.22s12.75,30.2,28.42,30.2h1.46C18.42,63.11,6.87,50.73,5.72,36.6Z"/><path class="cls-3" d="M44.94,33.91c0,.05,0,.11,0,.16s0,.23,0,.34,0,.39,0,.59,0,.51,0,.77v0c-.31,6.61-4.47,12-9.71,12.57l-.1.06h.54c5.71,0,10.36-6,10.36-13.43S41.4,21.57,35.69,21.57h-.54l.1.06C40.41,22.24,44.52,27.43,44.94,33.91Z"/></g></svg>