<svg xmlns="http://www.w3.org/2000/svg" viewBox="0 0 75.15 74.14"><defs><style>.cls-1{fill:#167ddb;}.cls-2{fill:#0e6ec4;}.cls-3{fill:#2a91d1;}</style></defs><g id="shapes"><circle class="cls-1" cx="37.57" cy="37.07" r="35.21"/><path class="cls-2" d="M34.46,65.94A35.16,35.16,0,0,1,7.22,19.24,35.2,35.2,0,1,0,70.68,49.05,35.2,35.2,0,0,1,34.46,65.94Z"/><path class="cls-3" d="M9.16,16.27a33.67,33.67,0,0,0-1.94,3,39.2,39.2,0,0,0-1.44,5.17C18,7.68,42.68,4.9,59.41,17.15a37.38,37.38,0,0,1,13.32,18.1,35.21,35.21,0,0,0-63.57-19Z"/></g></svg>