<svg xmlns="http://www.w3.org/2000/svg" viewBox="0 0 76.58 58.49"><defs><style>.cls-1{fill:#167ddb;}.cls-2{fill:#2a91d1;}.cls-3{fill:#0e6ec4;}.cls-4{fill:#278bd6;}</style></defs><g id="shapes"><path class="cls-1" d="M72,5.9C88.08,52.27,21,78.75,3,33.14.62,22.68,19.18,18.2,22.1,25.59c4.26,10.79,12.74,12.43,21.36,9s13.45-11,9.43-21.18S68.59-2.73,72,5.9Z"/><ellipse class="cls-2" cx="62.44" cy="9.67" rx="10.27" ry="7.95" transform="translate(0.81 23.6) rotate(-21.54)"/><ellipse class="cls-2" cx="12.55" cy="29.37" rx="10.27" ry="7.95" transform="translate(-9.91 6.66) rotate(-21.54)"/><path class="cls-3" d="M63.93,45.1c2-2.19,11.91-17.33,5.89-31,2.39-2.66,3.25-5.5,2.18-8.22C74.9,14.61,78.11,30.28,63.93,45.1Z"/><path class="cls-3" d="M42.1,35.11C32.49,38.46,27.38,37.42,22,30.79a6.81,6.81,0,0,0,.15-5.2c1.66,4.14,4.07,7.84,8.94,9.8C34,36.58,38.31,36.37,42.1,35.11Z"/><path class="cls-4" d="M25.53,55.29C19.24,53.27,9.11,48.62,3,33.14a5.89,5.89,0,0,0,2.42,3C11.15,48.57,19.9,53.32,25.53,55.29Z"/><path class="cls-4" d="M49.25,49.29a26.22,26.22,0,0,1-17.37,1A22.06,22.06,0,0,0,62.63,38.17,26.38,26.38,0,0,1,49.25,49.29Z"/></g></svg>