<svg xmlns="http://www.w3.org/2000/svg" viewBox="0 0 57.2 57.21"><defs><style>.cls-1{fill:#167ddb;}.cls-2{fill:#0e6ec4;}.cls-3{fill:#2a91d1;}</style></defs><g id="shapes"><circle class="cls-1" cx="28.6" cy="28.6" r="28.6"/><path class="cls-2" d="M26.07,52.06a28.6,28.6,0,0,1-23.44-33,29,29,0,0,1,1.31-5A28.6,28.6,0,1,0,55.5,38.33,28.61,28.61,0,0,1,26.07,52.06Z"/><path class="cls-3" d="M5.52,11.71a26,26,0,0,0-1.58,2.41,32.34,32.34,0,0,0-1.17,4.2c10-13.59,30-15.85,43.57-5.9A30.4,30.4,0,0,1,57.16,27.13,28.6,28.6,0,0,0,5.52,11.71Z"/></g></svg>