<svg xmlns="http://www.w3.org/2000/svg" viewBox="0 0 86.82 86.5"><defs><style>.cls-1{fill:#dda591;}.cls-2{fill:#d39c8c;}.cls-3{fill:#e2af9f;}</style></defs><g id="shapes"><circle class="cls-1" cx="43.41" cy="43.18" r="43.41"/><path class="cls-2" d="M12.42,61.11A43.38,43.38,0,0,1,39,0,43.41,43.41,0,1,0,55.61,84.85,43.43,43.43,0,0,1,12.42,61.11Z"/><path class="cls-3" d="M43.41-.23A39,39,0,0,0,39,0a48.29,48.29,0,0,0-6.19,2.33c25.57,0,46.29,22.5,46.29,48.06a46,46,0,0,1-8.3,26.44A43.41,43.41,0,0,0,43.41-.23Z"/></g></svg>