<svg xmlns="http://www.w3.org/2000/svg" viewBox="0 0 83.34 89.93"><defs><style>.cls-1{fill:#74a591;}.cls-2{fill:#89af9f;}.cls-3{fill:#64997f;}.cls-4{fill:#7ea896;}</style></defs><g id="shapes"><path class="cls-1" d="M19.72,84.51C-24.77,44.72,30.89-23.07,77,14.78c8.71,9.71-8.38,25.44-15.86,19.31-10.9-9-20.88-5.68-28,3S25.3,56.76,35.58,65.2,28.44,91.67,19.72,84.51Z"/><ellipse class="cls-2" cx="27.65" cy="74.85" rx="12.49" ry="9.67" transform="translate(-47.75 48.72) rotate(-50.61)"/><ellipse class="cls-2" cx="69.05" cy="24.43" rx="12.49" ry="9.67" transform="translate(6.35 62.29) rotate(-50.61)"/><path class="cls-3" d="M5.13,38.07c-.79,3.48-2.41,25.46,12.05,36.41-1,4.25-.21,7.77,2.54,10C11.49,77-1.19,62.2,5.13,38.07Z"/><path class="cls-3" d="M34.24,35.78c8.24-9.23,14.29-11.15,24-7.3a8.22,8.22,0,0,0,2.9,5.61c-4.21-3.41-8.95-5.93-15.28-5.13C42,29.44,37.52,32.21,34.24,35.78Z"/><path class="cls-3" d="M39.94,4.55C47.81,3,61.33,1.93,77,14.78A7.14,7.14,0,0,0,72.64,13C59.19,3.19,47.08,3.31,39.94,4.55Z"/><path class="cls-4" d="M18.27,24.94A31.88,31.88,0,0,1,36.13,13.59c-6.1,0-14.25,3.07-19.77,9.79s-7,15.31-5.75,21.29A32,32,0,0,1,18.27,24.94Z"/></g></svg>