<svg xmlns="http://www.w3.org/2000/svg" viewBox="0 0 129.61 129.14"><defs><style>.cls-1{fill:#64997f;}.cls-2{fill:#74a591;}.cls-3{fill:#89af9f;}</style></defs><g id="shapes"><path class="cls-1" d="M65.17,2.6a62,62,0,1,0,62,62A62,62,0,0,0,65.17,2.6Zm0,88.83c-12.1,0-21.9-12-21.9-26.86s9.8-26.86,21.9-26.86,21.89,12,21.89,26.86S77.26,91.43,65.17,91.43Z"/><path class="cls-2" d="M61,2.6C28.67,2.6,2.47,29.64,2.47,63S28.67,123.41,61,123.41,119.5,96.37,119.5,63,93.3,2.6,61,2.6Zm0,98.78C40.45,101.38,23.81,84.2,23.81,63S40.45,24.63,61,24.63,98.15,41.81,98.15,63,81.51,101.38,61,101.38Z"/><path class="cls-3" d="M8.55,67.76,8.49,67c0-.48-.07-1-.09-1.46Q8.34,64.31,8.34,63c0-1.12,0-2.24.1-3.34,0,0,0-.09,0-.13C10.16,30.67,33.51,5.33,62.23,2.66L60,2.6C28.66,2.6,2.47,30.7,2.47,63S28,123.41,59.3,123.41h2.93C33.94,120.78,10.84,96,8.55,67.76Z"/><path class="cls-3" d="M87,62.39c0,.11,0,.22,0,.33s0,.45,0,.67c0,.39,0,.78,0,1.18s0,1,0,1.54v0C86.4,79.4,78.09,90.08,67.61,91.31l-.2.12h1.07c11.42,0,20.72-12.05,20.72-26.86S79.9,37.71,68.48,37.71H67.41l.2.13C77.93,39,86.15,49.43,87,62.39Z"/></g></svg>