<svg id="tiles" xmlns="http://www.w3.org/2000/svg" viewBox="0 0 1430.05 776.31"><defs><style>.cls-1{fill:none;stroke:#33303a;stroke-miterlimit:10;stroke-width:4px;}</style></defs><line class="cls-1" x2="1430.05"/><line class="cls-1" y1="40.86" x2="1430.05" y2="40.86"/><line class="cls-1" y1="81.72" x2="1430.05" y2="81.72"/><line class="cls-1" y1="122.58" x2="1430.05" y2="122.58"/><line class="cls-1" y1="163.43" x2="1430.05" y2="163.43"/><line class="cls-1" y1="204.29" x2="1430.05" y2="204.29"/><line class="cls-1" y1="245.15" x2="1430.05" y2="245.15"/><line class="cls-1" y1="286.01" x2="1430.05" y2="286.01"/><line class="cls-1" y1="326.87" x2="1430.05" y2="326.87"/><line class="cls-1" y1="367.73" x2="1430.05" y2="367.73"/><line class="cls-1" y1="408.59" x2="1430.05" y2="408.59"/><line class="cls-1" y1="449.45" x2="1430.05" y2="449.45"/><line class="cls-1" y1="490.3" x2="1430.05" y2="490.3"/><line class="cls-1" y1="531.16" x2="1430.05" y2="531.16"/><line class="cls-1" y1="572.02" x2="1430.05" y2="572.02"/><line class="cls-1" y1="612.88" x2="1430.05" y2="612.88"/><line class="cls-1" y1="653.74" x2="1430.05" y2="653.74"/><line class="cls-1" y1="694.6" x2="1430.05" y2="694.6"/><line class="cls-1" y1="735.46" x2="1430.05" y2="735.46"/><line class="cls-1" y1="776.31" x2="1430.05" y2="776.31"/><line class="cls-1" x1="776.32" x2="776.32" y2="776.31"/><line class="cls-1" x1="735.46" x2="735.46" y2="776.31"/><line class="cls-1" x1="694.6" x2="694.6" y2="776.31"/><line class="cls-1" x1="653.74" x2="653.74" y2="776.31"/><line class="cls-1" x1="612.88" x2="612.88" y2="776.31"/><line class="cls-1" x1="572.02" x2="572.02" y2="776.31"/><line class="cls-1" x1="531.16" x2="531.16" y2="776.31"/><line class="cls-1" x1="490.3" x2="490.3" y2="776.31"/><line class="cls-1" x1="449.45" x2="449.45" y2="776.31"/><line class="cls-1" x1="408.59" x2="408.59" y2="776.31"/><line class="cls-1" x1="367.73" x2="367.73" y2="776.31"/><line class="cls-1" x1="326.87" x2="326.87" y2="776.31"/><line class="cls-1" x1="286.01" x2="286.01" y2="776.31"/><line class="cls-1" x1="245.15" x2="245.15" y2="776.31"/><line class="cls-1" x1="204.29" x2="204.29" y2="776.31"/><line class="cls-1" x1="163.43" x2="163.43" y2="776.31"/><line class="cls-1" x1="122.58" x2="122.58" y2="776.31"/><line class="cls-1" x1="81.72" x2="81.72" y2="776.31"/><line class="cls-1" x1="40.86" x2="40.86" y2="776.31"/><line class="cls-1" y2="776.31"/><line class="cls-1" x1="1430.05" x2="1430.05" y2="776.31"/><line class="cls-1" x1="1389.2" x2="1389.2" y2="776.31"/><line class="cls-1" x1="1348.34" x2="1348.34" y2="776.31"/><line class="cls-1" x1="1307.48" x2="1307.48" y2="776.31"/><line class="cls-1" x1="1266.62" x2="1266.62" y2="776.31"/><line class="cls-1" x1="1225.76" x2="1225.76" y2="776.31"/><line class="cls-1" x1="1184.9" x2="1184.9" y2="776.31"/><line class="cls-1" x1="1144.04" x2="1144.04" y2="776.31"/><line class="cls-1" x1="1103.18" x2="1103.18" y2="776.31"/><line class="cls-1" x1="1062.33" x2="1062.33" y2="776.31"/><line class="cls-1" x1="1021.47" x2="1021.47" y2="776.31"/><line class="cls-1" x1="980.61" x2="980.61" y2="776.31"/><line class="cls-1" x1="939.75" x2="939.75" y2="776.31"/><line class="cls-1" x1="898.89" x2="898.89" y2="776.31"/><line class="cls-1" x1="858.03" x2="858.03" y2="776.31"/><line class="cls-1" x1="817.17" x2="817.17" y2="776.31"/></svg>