<svg id="shapes" xmlns="http://www.w3.org/2000/svg" viewBox="0 0 370 800"><defs><style>.cls-1,.cls-8{fill:#dda591;}.cls-1{stroke:#9b5545;stroke-miterlimit:10;}.cls-2{fill:#167ddb;}.cls-3{fill:#0e6ec4;}.cls-4{fill:#2a91d1;}.cls-5{fill:#64997f;}.cls-6{fill:#74a591;}.cls-7{fill:#89af9f;}.cls-9{fill:#d39c8c;}.cls-10{fill:#e2af9f;}.cls-11{fill:#278bd6;}</style></defs><rect class="cls-1" x="64.86" y="190.93" width="22" height="7.93" rx="3.96" transform="translate(-130.46 229.11) rotate(-78.15)"/><rect class="cls-1" x="105.97" y="102.79" width="22" height="7.93" rx="3.96" transform="translate(-11.54 199.31) rotate(-78.15)"/><rect class="cls-1" x="143.64" y="110.7" width="22" height="7.93" rx="3.96" transform="translate(10.66 242.46) rotate(-78.15)"/><rect class="cls-1" x="122.63" y="72.07" width="22" height="7.93" rx="3.96" transform="translate(31.77 191.21) rotate(-78.15)"/><rect class="cls-1" x="153.35" y="75.06" width="22" height="7.93" rx="3.96" transform="translate(1.79 161.67) rotate(-52.63)"/><rect class="cls-1" x="134.47" y="87.67" width="22" height="7.93" rx="3.96" transform="translate(25.92 215.19) rotate(-78.15)"/><rect class="cls-1" x="77.16" y="207.14" width="22" height="7.93" rx="3.96" transform="translate(-136.55 254.03) rotate(-78.15)"/><rect class="cls-1" x="47.13" y="149.03" width="22" height="7.93" rx="3.96" transform="translate(-103.54 178.47) rotate(-78.15)"/><rect class="cls-1" x="114.34" y="153.79" width="22" height="7.93" rx="3.96" transform="translate(-54.79 248.03) rotate(-78.15)"/><rect class="cls-1" x="121.14" y="179.7" width="22" height="7.93" rx="3.96" transform="translate(-74.74 275.27) rotate(-78.15)"/><rect class="cls-1" x="131.55" y="138.63" width="22" height="7.93" rx="3.96" transform="translate(-26.28 252.82) rotate(-78.15)"/><rect class="cls-1" x="76.08" y="107.63" width="22" height="7.93" rx="3.96" transform="translate(-40.02 173.9) rotate(-78.15)"/><rect class="cls-1" x="48.55" y="201.14" width="22" height="7.93" rx="3.96" transform="translate(-144.45 268.33) rotate(-91.03)"/><rect class="cls-1" x="98.35" y="136.19" width="22" height="7.93" rx="3.96" transform="translate(-15.05 267.15) rotate(-97.63)"/><rect class="cls-1" x="145.93" y="52.83" width="22" height="7.93" rx="3.96" transform="translate(121.47 219.88) rotate(-97.63)"/><rect class="cls-1" x="46.8" y="233.84" width="22" height="7.93" rx="3.96" transform="translate(-170.23 326.67) rotate(-97.63)"/><rect class="cls-1" x="25.43" y="252.43" width="22" height="7.93" rx="3.96" transform="translate(-216.83 202.33) rotate(-69.86)"/><rect class="cls-1" x="63.69" y="160.58" width="22" height="7.93" rx="3.96" transform="translate(-105.7 153.91) rotate(-62.21)"/><rect class="cls-1" x="146.98" y="135.65" width="22" height="7.93" rx="3.96" transform="translate(-39.18 214.29) rotate(-62.21)"/><rect class="cls-1" x="30.52" y="211.54" width="22" height="7.93" rx="3.96" transform="translate(-168.49 151.77) rotate(-62.21)"/><rect class="cls-1" x="113.55" y="123.06" width="22" height="7.93" rx="3.96" transform="translate(-45.89 178) rotate(-62.21)"/><rect class="cls-1" x="80.1" y="133.52" width="22" height="7.93" rx="3.96" transform="translate(-73 153.99) rotate(-62.21)"/><rect class="cls-1" x="86.95" y="168.76" width="22" height="7.93" rx="3.96" transform="translate(-92.98 118.2) rotate(-44.5)"/><circle class="cls-2" cx="36.43" cy="499.96" r="10.96"/><path class="cls-3" d="M35.46,509A11,11,0,0,1,27,494.41a11.09,11.09,0,0,0-1.35,3.73,11,11,0,0,0,21.11,5.55A11,11,0,0,1,35.46,509Z"/><path class="cls-4" d="M27.59,493.49a9.15,9.15,0,0,0-.61.92,14.26,14.26,0,0,0-.45,1.61c3.82-5.21,11.49-6.07,16.7-2.26a11.6,11.6,0,0,1,4.15,5.64,11,11,0,0,0-19.79-5.91Z"/><path class="cls-5" d="M48.53,728.24a27.6,27.6,0,1,0,27.59,27.59A27.59,27.59,0,0,0,48.53,728.24Zm0,39.55c-5.39,0-9.76-5.35-9.76-12s4.37-12,9.76-12,9.75,5.36,9.75,12S53.91,767.79,48.53,767.79Z"/><path class="cls-6" d="M46.66,728.24c-14.39,0-26,12-26,26.89S32.27,782,46.66,782s26.06-12,26.06-26.9S61.05,728.24,46.66,728.24Zm0,44a17.09,17.09,0,0,1,0-34.17,17.09,17.09,0,0,1,0,34.17Z"/><path class="cls-7" d="M23.31,757.25c0-.1,0-.21,0-.32s0-.43,0-.65c0-.38,0-.76,0-1.15s0-1,.05-1.49v0c.76-12.86,11.16-24.14,24-25.32l-1,0c-13.95,0-25.61,12.51-25.61,26.89S32,782,45.91,782h1.31C34.62,780.86,24.34,769.84,23.31,757.25Z"/><path class="cls-7" d="M58.24,754.86s0,.1,0,.15,0,.2,0,.3,0,.35,0,.52,0,.46,0,.69v0c-.28,5.89-4,10.65-8.64,11.2l-.1,0H50c5.09,0,9.23-5.36,9.23-12s-4.14-12-9.23-12h-.48l.1.06C54.21,744.46,57.87,749.09,58.24,754.86Z"/><path class="cls-8" d="M113.47,610.48c2.49,3-2.3,11.07-10.68,18s-17.2,10.2-19.69,7.2L77.44,596.9Z"/><path class="cls-9" d="M111.83,618.61,77.44,596.9l36,13.58C115,612.15,113.93,615.24,111.83,618.61Z"/><path class="cls-10" d="M96.25,633.17,77.44,596.9l14,38.7A34.42,34.42,0,0,0,96.25,633.17Z"/><path class="cls-2" d="M66.37,42.11C85.24,66.68,50.32,95.9,30.46,72.16,27,66.37,37.19,60,40.41,63.84,45.1,69.45,50.51,68.74,55,65s5.87-9.27,1.44-14.56S62.62,37.62,66.37,42.11Z"/><ellipse class="cls-4" cx="61.4" cy="46.27" rx="6.48" ry="5.02" transform="translate(-15.38 50.19) rotate(-39.92)"/><ellipse class="cls-4" cx="35.43" cy="68" rx="6.48" ry="5.02" transform="translate(-35.38 38.59) rotate(-39.92)"/><path class="cls-3" d="M69.34,67.2c.74-1.7,3.69-12.76-2.64-19.73.91-2.07.86-3.94-.33-5.36C69.85,46.75,74.89,55.5,69.34,67.2Z"/><path class="cls-3" d="M54.28,65.56c-5.09,3.92-8.36,4.31-12.94,1.42a4.26,4.26,0,0,0-.93-3.14c1.81,2.14,4,3.88,7.3,4.09A10.94,10.94,0,0,0,54.28,65.56Z"/><path class="cls-11" d="M48.37,80.94c-4.17,0-11.16-.72-17.91-8.78a3.76,3.76,0,0,0,2,1.3C38.42,79.78,44.6,80.89,48.37,80.94Z"/><path class="cls-11" d="M61.38,72.63a16.55,16.55,0,0,1-10.2,4.07,13.94,13.94,0,0,0,16-13.4A16.68,16.68,0,0,1,61.38,72.63Z"/></svg>