<svg id="tiles" xmlns="http://www.w3.org/2000/svg" viewBox="0 0 370 800"><defs><style>.cls-1{fill:none;stroke:#33303a;stroke-miterlimit:10;stroke-width:2px;}</style></defs><line class="cls-1" x1="-1.99" y1="11.49" x2="371.99" y2="11.49"/><line class="cls-1" x1="-1.99" y1="30.39" x2="371.99" y2="30.39"/><line class="cls-1" x1="-1.99" y1="49.29" x2="371.99" y2="49.29"/><line class="cls-1" x1="-1.99" y1="68.18" x2="371.99" y2="68.18"/><line class="cls-1" x1="-1.99" y1="87.08" x2="371.99" y2="87.08"/><line class="cls-1" x1="-1.99" y1="105.98" x2="371.99" y2="105.98"/><line class="cls-1" x1="-1.99" y1="124.88" x2="371.99" y2="124.88"/><line class="cls-1" x1="-1.99" y1="143.77" x2="371.99" y2="143.77"/><line class="cls-1" x1="-1.99" y1="162.67" x2="371.99" y2="162.67"/><line class="cls-1" x1="-1.99" y1="181.57" x2="371.99" y2="181.57"/><line class="cls-1" x1="-1.99" y1="200.46" x2="371.99" y2="200.46"/><line class="cls-1" x1="-1.99" y1="219.36" x2="371.99" y2="219.36"/><line class="cls-1" x1="-1.99" y1="238.26" x2="371.99" y2="238.26"/><line class="cls-1" x1="-1.99" y1="257.16" x2="371.99" y2="257.16"/><line class="cls-1" x1="-1.99" y1="276.05" x2="371.99" y2="276.05"/><line class="cls-1" x1="-1.99" y1="294.95" x2="371.99" y2="294.95"/><line class="cls-1" x1="-1.99" y1="313.85" x2="371.99" y2="313.85"/><line class="cls-1" x1="-1.99" y1="332.75" x2="371.99" y2="332.75"/><line class="cls-1" x1="-1.99" y1="351.64" x2="371.99" y2="351.64"/><line class="cls-1" x1="186.99" y1="-7.41" x2="186.99" y2="807.41"/><line class="cls-1" x1="168.09" y1="-7.41" x2="168.09" y2="807.41"/><line class="cls-1" x1="149.19" y1="-7.41" x2="149.19" y2="807.41"/><line class="cls-1" x1="130.29" y1="-7.41" x2="130.29" y2="807.41"/><line class="cls-1" x1="111.4" y1="-7.41" x2="111.4" y2="807.41"/><line class="cls-1" x1="92.5" y1="-7.41" x2="92.5" y2="807.41"/><line class="cls-1" x1="73.6" y1="-7.41" x2="73.6" y2="807.41"/><line class="cls-1" x1="54.71" y1="-7.41" x2="54.71" y2="807.41"/><line class="cls-1" x1="35.81" y1="-7.41" x2="35.81" y2="807.41"/><line class="cls-1" x1="16.91" y1="-7.41" x2="16.91" y2="807.41"/><line class="cls-1" x1="357.06" y1="-7.41" x2="357.06" y2="807.41"/><line class="cls-1" x1="338.17" y1="-7.41" x2="338.17" y2="807.41"/><line class="cls-1" x1="319.27" y1="-7.41" x2="319.27" y2="807.41"/><line class="cls-1" x1="300.37" y1="-7.41" x2="300.37" y2="807.41"/><line class="cls-1" x1="281.47" y1="-7.41" x2="281.47" y2="807.41"/><line class="cls-1" x1="262.58" y1="-7.41" x2="262.58" y2="807.41"/><line class="cls-1" x1="243.68" y1="-7.41" x2="243.68" y2="807.41"/><line class="cls-1" x1="224.78" y1="-7.41" x2="224.78" y2="807.41"/><line class="cls-1" x1="205.88" y1="-7.41" x2="205.88" y2="807.41"/><line class="cls-1" x1="-1.99" y1="351.64" x2="371.99" y2="351.64"/><line class="cls-1" x1="-1.99" y1="370.54" x2="371.99" y2="370.54"/><line class="cls-1" x1="-1.99" y1="389.44" x2="371.99" y2="389.44"/><line class="cls-1" x1="-1.99" y1="407.05" x2="371.99" y2="407.05"/><line class="cls-1" x1="-1.99" y1="425.95" x2="371.99" y2="425.95"/><line class="cls-1" x1="-1.99" y1="444.85" x2="371.99" y2="444.85"/><line class="cls-1" x1="-1.99" y1="463.74" x2="371.99" y2="463.74"/><line class="cls-1" x1="-1.99" y1="482.64" x2="371.99" y2="482.64"/><line class="cls-1" x1="-1.99" y1="501.54" x2="371.99" y2="501.54"/><line class="cls-1" x1="-1.99" y1="520.44" x2="371.99" y2="520.44"/><line class="cls-1" x1="-1.99" y1="539.33" x2="371.99" y2="539.33"/><line class="cls-1" x1="-1.99" y1="558.23" x2="371.99" y2="558.23"/><line class="cls-1" x1="-1.99" y1="577.13" x2="371.99" y2="577.13"/><line class="cls-1" x1="-1.99" y1="596.03" x2="371.99" y2="596.03"/><line class="cls-1" x1="-1.99" y1="614.92" x2="371.99" y2="614.92"/><line class="cls-1" x1="-1.99" y1="633.82" x2="371.99" y2="633.82"/><line class="cls-1" x1="-1.99" y1="652.72" x2="371.99" y2="652.72"/><line class="cls-1" x1="-1.99" y1="671.61" x2="371.99" y2="671.61"/><line class="cls-1" x1="-1.99" y1="690.51" x2="371.99" y2="690.51"/><line class="cls-1" x1="-1.99" y1="709.41" x2="371.99" y2="709.41"/><line class="cls-1" x1="-1.99" y1="728.31" x2="371.99" y2="728.31"/><line class="cls-1" x1="-1.99" y1="747.2" x2="371.99" y2="747.2"/><line class="cls-1" x1="-1.99" y1="766.1" x2="371.99" y2="766.1"/><line class="cls-1" x1="-1.99" y1="766.1" x2="371.99" y2="766.1"/><line class="cls-1" x1="-1.99" y1="785" x2="371.99" y2="785"/></svg>