<svg id="shapes" xmlns="http://www.w3.org/2000/svg" viewBox="0 0 370 800"><defs><style>.cls-1,.cls-5{fill:#dda591;}.cls-1{stroke:#9b5545;stroke-miterlimit:10;}.cls-2{fill:#0a6dc6;}.cls-3{fill:#167ddb;}.cls-4{fill:#2a91d1;}.cls-6{fill:#d39c8c;}.cls-7{fill:#e2af9f;}.cls-8{fill:#0e6ec4;}.cls-9{fill:#74a591;}.cls-10{fill:#64997f;}.cls-11{fill:#89af9f;}.cls-12{fill:#1e80d8;}.cls-13{fill:#278bd6;}.cls-14{fill:#7ea896;}</style></defs><rect class="cls-1" x="64.86" y="190.93" width="22" height="7.93" rx="3.96" transform="translate(-130.46 229.11) rotate(-78.15)"/><rect class="cls-1" x="105.97" y="102.79" width="22" height="7.93" rx="3.96" transform="translate(-11.54 199.31) rotate(-78.15)"/><rect class="cls-1" x="143.64" y="110.7" width="22" height="7.93" rx="3.96" transform="translate(10.66 242.46) rotate(-78.15)"/><rect class="cls-1" x="122.63" y="72.07" width="22" height="7.93" rx="3.96" transform="translate(31.77 191.21) rotate(-78.15)"/><rect class="cls-1" x="153.35" y="75.06" width="22" height="7.93" rx="3.96" transform="translate(1.79 161.67) rotate(-52.63)"/><rect class="cls-1" x="134.47" y="87.67" width="22" height="7.93" rx="3.96" transform="translate(25.92 215.19) rotate(-78.15)"/><rect class="cls-1" x="77.16" y="207.14" width="22" height="7.93" rx="3.96" transform="translate(-136.55 254.03) rotate(-78.15)"/><rect class="cls-1" x="47.13" y="149.03" width="22" height="7.93" rx="3.96" transform="translate(-103.54 178.47) rotate(-78.15)"/><rect class="cls-1" x="114.34" y="153.79" width="22" height="7.93" rx="3.96" transform="translate(-54.79 248.03) rotate(-78.15)"/><rect class="cls-1" x="121.14" y="179.7" width="22" height="7.93" rx="3.96" transform="translate(-74.74 275.27) rotate(-78.15)"/><rect class="cls-1" x="131.55" y="138.63" width="22" height="7.93" rx="3.96" transform="translate(-26.28 252.82) rotate(-78.15)"/><rect class="cls-1" x="76.08" y="107.63" width="22" height="7.93" rx="3.96" transform="translate(-40.02 173.9) rotate(-78.15)"/><rect class="cls-1" x="48.55" y="201.14" width="22" height="7.93" rx="3.96" transform="translate(-144.45 268.33) rotate(-91.03)"/><rect class="cls-1" x="98.35" y="136.19" width="22" height="7.93" rx="3.96" transform="translate(-15.05 267.15) rotate(-97.63)"/><rect class="cls-1" x="145.93" y="52.83" width="22" height="7.93" rx="3.96" transform="translate(121.47 219.88) rotate(-97.63)"/><rect class="cls-1" x="46.8" y="233.84" width="22" height="7.93" rx="3.96" transform="translate(-170.23 326.67) rotate(-97.63)"/><rect class="cls-1" x="25.43" y="252.43" width="22" height="7.93" rx="3.96" transform="translate(-216.83 202.33) rotate(-69.86)"/><rect class="cls-1" x="63.69" y="160.58" width="22" height="7.93" rx="3.96" transform="translate(-105.7 153.91) rotate(-62.21)"/><rect class="cls-1" x="146.98" y="135.65" width="22" height="7.93" rx="3.96" transform="translate(-39.18 214.29) rotate(-62.21)"/><rect class="cls-1" x="30.52" y="211.54" width="22" height="7.93" rx="3.96" transform="translate(-168.49 151.77) rotate(-62.21)"/><rect class="cls-1" x="113.55" y="123.06" width="22" height="7.93" rx="3.96" transform="translate(-45.89 178) rotate(-62.21)"/><rect class="cls-1" x="80.1" y="133.52" width="22" height="7.93" rx="3.96" transform="translate(-73 153.99) rotate(-62.21)"/><rect class="cls-1" x="86.95" y="168.76" width="22" height="7.93" rx="3.96" transform="translate(-92.98 118.2) rotate(-44.5)"/><path class="cls-2" d="M333.29,747.68A15.62,15.62,0,1,0,348.9,763.3,15.62,15.62,0,0,0,333.29,747.68Zm0,22.38c-3.05,0-5.52-3-5.52-6.76s2.47-6.77,5.52-6.77,5.51,3,5.51,6.77S336.33,770.06,333.29,770.06Z"/><path class="cls-3" d="M332.23,747.68A15.23,15.23,0,1,0,347,762.9,15,15,0,0,0,332.23,747.68Zm0,24.89a9.67,9.67,0,1,1,9.36-9.67A9.52,9.52,0,0,1,332.23,772.57Z"/><path class="cls-4" d="M319,764.1c0-.06,0-.12,0-.18s0-.25,0-.37,0-.43,0-.65,0-.56,0-.84v0c.43-7.28,6.31-13.66,13.55-14.33H332c-7.89,0-14.49,7.07-14.49,15.21s6.42,15.22,14.32,15.22h.74C325.42,777.45,319.6,771.22,319,764.1Z"/><path class="cls-4" d="M338.78,762.75V763c0,.1,0,.2,0,.3s0,.25,0,.38v0c-.16,3.33-2.25,6-4.89,6.33l0,0h.27c2.88,0,5.22-3,5.22-6.76s-2.34-6.77-5.22-6.77h-.27l0,0C336.5,756.86,338.57,759.48,338.78,762.75Z"/><circle class="cls-5" cx="338.65" cy="98.57" r="22.41"/><path class="cls-6" d="M322.65,107.83a22.43,22.43,0,0,1,10-30.09,22.76,22.76,0,0,1,3.75-1.47A22.41,22.41,0,1,0,345,120.08,22.42,22.42,0,0,1,322.65,107.83Z"/><path class="cls-7" d="M338.65,76.15a19.7,19.7,0,0,0-2.26.12,25.1,25.1,0,0,0-3.2,1.21c13.21,0,23.91,11.61,23.91,24.81a23.77,23.77,0,0,1-4.29,13.65,22.41,22.41,0,0,0-14.16-39.79Z"/><circle class="cls-3" cx="36.43" cy="499.96" r="10.96"/><path class="cls-8" d="M35.46,509A11,11,0,0,1,27,494.41a11.09,11.09,0,0,0-1.35,3.73,11,11,0,0,0,21.11,5.55A11,11,0,0,1,35.46,509Z"/><path class="cls-4" d="M27.59,493.49a9.15,9.15,0,0,0-.61.92,14.26,14.26,0,0,0-.45,1.61c3.82-5.21,11.49-6.07,16.7-2.26a11.6,11.6,0,0,1,4.15,5.64,11,11,0,0,0-19.79-5.91Z"/><path class="cls-9" d="M310.66,195.66c9.16,14.5,1.19,24.42-3.5,27.13s-13.2-3.28-19-13.37-6.75-20.46-2.06-23.17S302.15,182.18,310.66,195.66Z"/><ellipse class="cls-10" cx="296.62" cy="204.52" rx="9.8" ry="21.09" transform="translate(-62.52 175.71) rotate(-30)"/><path class="cls-10" d="M48.53,728.24a27.6,27.6,0,1,0,27.59,27.59A27.59,27.59,0,0,0,48.53,728.24Zm0,39.55c-5.39,0-9.76-5.35-9.76-12s4.37-12,9.76-12,9.75,5.36,9.75,12S53.91,767.79,48.53,767.79Z"/><path class="cls-9" d="M46.66,728.24c-14.39,0-26,12-26,26.89S32.27,782,46.66,782s26.06-12,26.06-26.9S61.05,728.24,46.66,728.24Zm0,44a17.09,17.09,0,0,1,0-34.17,17.09,17.09,0,0,1,0,34.17Z"/><path class="cls-11" d="M23.31,757.25c0-.1,0-.21,0-.32s0-.43,0-.65c0-.38,0-.76,0-1.15s0-1,.05-1.49v0c.76-12.86,11.16-24.14,24-25.32l-1,0c-13.95,0-25.61,12.51-25.61,26.89S32,782,45.91,782h1.31C34.62,780.86,24.34,769.84,23.31,757.25Z"/><path class="cls-11" d="M58.24,754.86s0,.1,0,.15,0,.2,0,.3,0,.35,0,.52,0,.46,0,.69v0c-.28,5.89-4,10.65-8.64,11.2l-.1,0H50c5.09,0,9.23-5.36,9.23-12s-4.14-12-9.23-12h-.48l.1.06C54.21,744.46,57.87,749.09,58.24,754.86Z"/><path class="cls-12" d="M352.58,579.72c-1.78,3.12-10.33,1.6-19.09-3.4s-14.41-11.59-12.62-14.71l31.78-17.5Z"/><path class="cls-8" d="M345,580.94l7.65-36.83-.07,35.61C351.62,581.57,348.61,581.66,345,580.94Z"/><path class="cls-13" d="M327.35,572.17l25.3-28.06-29,24.64A32.22,32.22,0,0,0,327.35,572.17Z"/><path class="cls-5" d="M113.47,610.48c2.49,3-2.3,11.07-10.68,18s-17.2,10.2-19.69,7.2L77.44,596.9Z"/><path class="cls-6" d="M111.83,618.61,77.44,596.9l36,13.58C115,612.15,113.93,615.24,111.83,618.61Z"/><path class="cls-7" d="M96.25,633.17,77.44,596.9l14,38.7A34.42,34.42,0,0,0,96.25,633.17Z"/><path class="cls-9" d="M271,694.56c-21.69-19.38,5.44-52.42,27.9-34,4.24,4.74-4.09,12.4-7.73,9.41-5.31-4.36-10.18-2.76-13.66,1.48s-3.8,9.57,1.21,13.68S275.28,698.05,271,694.56Z"/><ellipse class="cls-11" cx="274.89" cy="689.86" rx="6.09" ry="4.71" transform="translate(-432.71 464.54) rotate(-50.61)"/><ellipse class="cls-11" cx="295.06" cy="665.29" rx="6.09" ry="4.71" transform="translate(-406.35 471.15) rotate(-50.61)"/><path class="cls-10" d="M263.92,671.93c-.39,1.7-1.18,12.41,5.87,17.75-.48,2.07-.1,3.78,1.24,4.88C267,690.89,260.84,683.69,263.92,671.93Z"/><path class="cls-10" d="M278.1,670.82c4-4.5,7-5.43,11.69-3.56A4,4,0,0,0,291.2,670a9.5,9.5,0,0,0-7.45-2.5A10.26,10.26,0,0,0,278.1,670.82Z"/><path class="cls-10" d="M280.88,655.6c3.83-.77,10.42-1.28,18.05,5a3.51,3.51,0,0,0-2.12-.84C290.26,654.93,284.36,655,280.88,655.6Z"/><path class="cls-14" d="M270.32,665.54A15.49,15.49,0,0,1,279,660a13.06,13.06,0,0,0-12.43,15.14A15.55,15.55,0,0,1,270.32,665.54Z"/><path class="cls-3" d="M66.37,42.11C85.24,66.68,50.32,95.9,30.46,72.16,27,66.37,37.19,60,40.41,63.84,45.1,69.45,50.51,68.74,55,65s5.87-9.27,1.44-14.56S62.62,37.62,66.37,42.11Z"/><ellipse class="cls-4" cx="61.4" cy="46.27" rx="6.48" ry="5.02" transform="translate(-15.38 50.19) rotate(-39.92)"/><ellipse class="cls-4" cx="35.43" cy="68" rx="6.48" ry="5.02" transform="translate(-35.38 38.59) rotate(-39.92)"/><path class="cls-8" d="M69.34,67.2c.74-1.7,3.69-12.76-2.64-19.73.91-2.07.86-3.94-.33-5.36C69.85,46.75,74.89,55.5,69.34,67.2Z"/><path class="cls-8" d="M54.28,65.56c-5.09,3.92-8.36,4.31-12.94,1.42a4.26,4.26,0,0,0-.93-3.14c1.81,2.14,4,3.88,7.3,4.09A10.94,10.94,0,0,0,54.28,65.56Z"/><path class="cls-13" d="M48.37,80.94c-4.17,0-11.16-.72-17.91-8.78a3.76,3.76,0,0,0,2,1.3C38.42,79.78,44.6,80.89,48.37,80.94Z"/><path class="cls-13" d="M61.38,72.63a16.55,16.55,0,0,1-10.2,4.07,13.94,13.94,0,0,0,16-13.4A16.68,16.68,0,0,1,61.38,72.63Z"/></svg>