<svg id="Text" xmlns="http://www.w3.org/2000/svg" viewBox="0 0 370 800"><defs><style>.cls-1{fill:#278bd6;}.cls-2{fill:#e2dfea;}</style></defs><rect class="cls-1" x="100.53" y="286.19" width="272.11" height="77.33"/><rect class="cls-1" x="100.53" y="396.31" width="272.11" height="40.12"/><rect class="cls-1" x="100.53" y="447.39" width="272.11" height="40.12"/><path class="cls-2" d="M145.75,298.32H159.3v53.07H145.75V329.94H124.07v21.45H110.52V298.32h13.55V319h21.68Z"/><path class="cls-2" d="M168.93,351.39V298.32h37.71V309H182.41V319.1h22.73v10.61H182.41v11h24.23v10.69Z"/><path class="cls-2" d="M213.87,351.39V298.32h13.85v41.86H250.3v11.21Z"/><path class="cls-2" d="M256.92,351.39V298.32h13.85v41.86h22.59v11.21Z"/><path class="cls-2" d="M308,348.72a22.77,22.77,0,0,1-9.22-9.48,33.69,33.69,0,0,1,0-28.83A22.59,22.59,0,0,1,308,301a31.73,31.73,0,0,1,28.22,0,22.46,22.46,0,0,1,9.19,9.45,30.78,30.78,0,0,1,3.2,14.41,30.47,30.47,0,0,1-3.24,14.42,22.83,22.83,0,0,1-9.22,9.48,31.24,31.24,0,0,1-28.15,0Zm23.52-11.52q3.39-4.24,3.39-12.38t-3.43-12.34a12.6,12.6,0,0,0-18.78,0q-3.39,4.17-3.39,12.38t3.39,12.42a12.56,12.56,0,0,0,18.82,0Z"/><path class="cls-2" d="M110.4,427V404.21h5V427Z"/><path class="cls-2" d="M124.55,404.21v3.33a8.46,8.46,0,0,1-.67,3.38,10.23,10.23,0,0,1-2.25,3.13l-1.91-1.52a7,7,0,0,0,2-3.14h-2.4v-5.18Z"/><path class="cls-2" d="M151.64,412.4a7.94,7.94,0,0,1,1.33,5.05V427h-4.89v-9.42a4.17,4.17,0,0,0-.5-2.33,1.93,1.93,0,0,0-1.7-.72,2.62,2.62,0,0,0-2.17,1,4.22,4.22,0,0,0-.78,2.72V427h-4.88v-9.42a4.08,4.08,0,0,0-.51-2.33,1.92,1.92,0,0,0-1.7-.72,2.6,2.6,0,0,0-2.16,1,4.22,4.22,0,0,0-.78,2.72V427H128v-15.9h4.76v2.14a5,5,0,0,1,2-1.88,6.12,6.12,0,0,1,2.86-.65,4.62,4.62,0,0,1,4.73,2.95,5.67,5.67,0,0,1,2.17-2.15,6.1,6.1,0,0,1,3.08-.8A4.87,4.87,0,0,1,151.64,412.4Z"/><path class="cls-2" d="M178,412.43q1.69,1.68,1.7,5.21V427h-4.63v-2.36a3.81,3.81,0,0,1-1.62,1.92,4.9,4.9,0,0,1-2.65.7,6.54,6.54,0,0,1-2.93-.65,5.07,5.07,0,0,1-2.07-1.81,4.63,4.63,0,0,1-.77-2.59,4,4,0,0,1,.9-2.75A5.26,5.26,0,0,1,168.8,418a25.53,25.53,0,0,1,5.41-.45h.84V417a2.66,2.66,0,0,0-.62-2,3.06,3.06,0,0,0-2.13-.59,9.22,9.22,0,0,0-2.59.42A12.83,12.83,0,0,0,167,416l-1.3-3.27a15.06,15.06,0,0,1,7.06-2C175.12,410.74,176.88,411.31,178,412.43ZM174.17,423a3.52,3.52,0,0,0,.88-2.48v-.55h-.55a11.11,11.11,0,0,0-3.68.42,1.52,1.52,0,0,0-1,1.52,2,2,0,0,0,.6,1.46,2.07,2.07,0,0,0,1.51.58A3,3,0,0,0,174.17,423Z"/><path class="cls-2" d="M208.49,404.21V427h-4.86v-2.36a4.93,4.93,0,0,1-2,1.92,6.13,6.13,0,0,1-3,.7,6.47,6.47,0,0,1-3.64-1.05,7,7,0,0,1-2.5-2.95,10.15,10.15,0,0,1-.89-4.35,10,10,0,0,1,.89-4.33,6.55,6.55,0,0,1,6.14-3.87,6.21,6.21,0,0,1,2.93.69,4.88,4.88,0,0,1,2,1.9v-9.12Zm-5.78,18.17a6.65,6.65,0,0,0,0-6.75,3.17,3.17,0,0,0-2.64-1.16,3.21,3.21,0,0,0-2.65,1.15,5.09,5.09,0,0,0-.94,3.32,5.44,5.44,0,0,0,.94,3.41,3.51,3.51,0,0,0,5.29,0Z"/><path class="cls-2" d="M226.55,420H216.19a4.12,4.12,0,0,0,1.25,2.77,4.4,4.4,0,0,0,2.9.86,7.65,7.65,0,0,0,2.44-.4,8.07,8.07,0,0,0,2.22-1.15l1.3,3.27a8.9,8.9,0,0,1-2.84,1.42,11.09,11.09,0,0,1-3.35.52,8.79,8.79,0,0,1-6.33-2.22,8,8,0,0,1-2.31-6,9,9,0,0,1,1-4.3,7.36,7.36,0,0,1,2.79-2.93,7.78,7.78,0,0,1,4-1.06,6.81,6.81,0,0,1,5.3,2.17,8.5,8.5,0,0,1,2,5.9Zm-9.34-5a4.46,4.46,0,0,0-1,2.58h6.25a4.22,4.22,0,0,0-.85-2.59,2.7,2.7,0,0,0-2.16-.88A2.89,2.89,0,0,0,217.21,415Z"/><path class="cls-2" d="M231.59,426.79a10.32,10.32,0,0,1-3.16-1.44l1.3-3.37a10.71,10.71,0,0,0,2.85,1.36,10.54,10.54,0,0,0,3.14.48,3.47,3.47,0,0,0,1.76-.37,1.14,1.14,0,0,0,.63-1,1,1,0,0,0-.44-.9,4.59,4.59,0,0,0-1.63-.59l-2.59-.58a6.8,6.8,0,0,1-3.38-1.6,4,4,0,0,1-1.09-3,4.26,4.26,0,0,1,.86-2.63,5.67,5.67,0,0,1,2.43-1.78,9.31,9.31,0,0,1,3.57-.65,11,11,0,0,1,3.34.52,10.19,10.19,0,0,1,2.91,1.46L240.8,416a8.74,8.74,0,0,0-5-1.75,3.46,3.46,0,0,0-1.78.39,1.21,1.21,0,0,0-.64,1.1,1,1,0,0,0,.38.81,4.35,4.35,0,0,0,1.36.55l2.69.61a7.22,7.22,0,0,1,3.54,1.67,4.06,4.06,0,0,1,1.12,3,4.21,4.21,0,0,1-1.83,3.61,8.51,8.51,0,0,1-5,1.31A15.39,15.39,0,0,1,231.59,426.79Z"/><path class="cls-2" d="M245.1,403.49h5.25v4.57H245.1Zm.17,23.54v-15.9h4.88V427Z"/><path class="cls-2" d="M270.13,411.13v14.18a7.43,7.43,0,0,1-2.2,5.83q-2.21,2-6.51,2a16.14,16.14,0,0,1-4.09-.52,12.28,12.28,0,0,1-3.45-1.46l1.29-3.37a12.58,12.58,0,0,0,6.12,1.69c2.68,0,4-1.27,4-3.79v-1.75a4.76,4.76,0,0,1-2,1.94,6.45,6.45,0,0,1-3,.72,6.92,6.92,0,0,1-3.67-1,6.54,6.54,0,0,1-2.51-2.76,10,10,0,0,1,0-8.32,6.74,6.74,0,0,1,2.51-2.79,6.84,6.84,0,0,1,3.67-1,6.5,6.5,0,0,1,3,.7,5,5,0,0,1,2,1.93v-2.24Zm-5.81,10.62a4.57,4.57,0,0,0,.95-3.07,4.67,4.67,0,0,0-.95-3.1,3.34,3.34,0,0,0-2.67-1.11,3.38,3.38,0,0,0-2.69,1.11,4.57,4.57,0,0,0-1,3.1,4.51,4.51,0,0,0,1,3.06,3.38,3.38,0,0,0,2.69,1.11A3.34,3.34,0,0,0,264.32,421.75Z"/><path class="cls-2" d="M288.1,412.41a7.77,7.77,0,0,1,1.39,5V427H284.6v-9.36a3.75,3.75,0,0,0-.6-2.36,2.24,2.24,0,0,0-1.86-.75,3.2,3.2,0,0,0-2.44,1,3.57,3.57,0,0,0-.93,2.59V427h-4.89v-15.9h4.76v2.27a5.53,5.53,0,0,1,2.19-2,6.5,6.5,0,0,1,3-.69A5.23,5.23,0,0,1,288.1,412.41Z"/><path class="cls-2" d="M307.46,420H297.1a4.07,4.07,0,0,0,1.24,2.77,4.4,4.4,0,0,0,2.9.86,7.65,7.65,0,0,0,2.44-.4,8.07,8.07,0,0,0,2.22-1.15l1.3,3.27a8.79,8.79,0,0,1-2.84,1.42,11.09,11.09,0,0,1-3.35.52,8.79,8.79,0,0,1-6.33-2.22,8,8,0,0,1-2.31-6,9,9,0,0,1,1-4.3,7.36,7.36,0,0,1,2.79-2.93,7.78,7.78,0,0,1,4-1.06,6.81,6.81,0,0,1,5.3,2.17,8.51,8.51,0,0,1,2,5.9Zm-9.34-5a4.46,4.46,0,0,0-1,2.58h6.24a4.22,4.22,0,0,0-.85-2.59,2.7,2.7,0,0,0-2.16-.88A2.88,2.88,0,0,0,298.12,415Z"/><path class="cls-2" d="M321.76,414.76l-2.75.29a4.24,4.24,0,0,0-2.88,1.15,3.71,3.71,0,0,0-.84,2.54V427H310.4v-15.9h4.7v2.69c.79-1.83,2.44-2.84,4.95-3l1.42-.1Z"/><path class="cls-2" d="M348.8,427l-2.27-2.27a10.83,10.83,0,0,1-11.07,1.72,6.83,6.83,0,0,1-2.88-2.25,5.49,5.49,0,0,1-1-3.32,6.31,6.31,0,0,1,1.08-3.63,10.27,10.27,0,0,1,3.45-2.91,10.09,10.09,0,0,1-1.68-2.39,5.54,5.54,0,0,1-.55-2.4,5.28,5.28,0,0,1,.82-2.93,5.47,5.47,0,0,1,2.35-2,8.33,8.33,0,0,1,3.47-.69,6.43,6.43,0,0,1,4.37,1.41,4.76,4.76,0,0,1,1.61,3.77,5.43,5.43,0,0,1-1,3.17,9,9,0,0,1-3.13,2.62l3.92,3.86a14.48,14.48,0,0,0,1.42-5.73h4.05a17.15,17.15,0,0,1-2.56,8.61l5.44,5.34Zm-5-4.95-5.21-5.18a4.27,4.27,0,0,0-2.3,3.69,2.71,2.71,0,0,0,.95,2.18,3.92,3.92,0,0,0,2.58.8A6.24,6.24,0,0,0,343.81,422.08Zm-4.95-14.23a2.24,2.24,0,0,0-.65,1.7,2.59,2.59,0,0,0,.37,1.32,8.79,8.79,0,0,0,1.31,1.62A7.66,7.66,0,0,0,342,411a2.5,2.5,0,0,0,.62-1.64,2.09,2.09,0,0,0-.57-1.52,1.94,1.94,0,0,0-1.47-.58A2.3,2.3,0,0,0,338.86,407.85Z"/><path class="cls-2" d="M130.67,461.65h4.76L129,477.55h-4.14l-3.5-9-3.4,9h-4.11l-6.47-15.9h5l3.76,10.07,3.75-10.07h3.31l3.78,10.17Z"/><path class="cls-2" d="M151.22,470.52H140.86a4.12,4.12,0,0,0,1.25,2.77,4.4,4.4,0,0,0,2.9.86,7.67,7.67,0,0,0,2.44-.41,7.81,7.81,0,0,0,2.22-1.15l1.3,3.27a8.91,8.91,0,0,1-2.84,1.43,11.41,11.41,0,0,1-3.35.52,8.79,8.79,0,0,1-6.33-2.22,8,8,0,0,1-2.31-6,9,9,0,0,1,1-4.3,7.3,7.3,0,0,1,2.79-2.93,7.69,7.69,0,0,1,4-1.06,6.82,6.82,0,0,1,5.3,2.17,8.49,8.49,0,0,1,1.95,5.89Zm-9.34-5a4.42,4.42,0,0,0-1,2.57h6.25a4.27,4.27,0,0,0-.85-2.59,2.72,2.72,0,0,0-2.16-.87A2.89,2.89,0,0,0,141.88,465.52Z"/><path class="cls-2" d="M167.67,462.27a6.76,6.76,0,0,1,2.48,2.86,10,10,0,0,1,.89,4.32,10.23,10.23,0,0,1-.89,4.36,7,7,0,0,1-2.5,2.94,6.74,6.74,0,0,1-6.62.36,5,5,0,0,1-2-1.93v2.37h-4.82V454.72h4.89v9.07a4.79,4.79,0,0,1,2-1.86,6.32,6.32,0,0,1,2.93-.67A6.71,6.71,0,0,1,167.67,462.27Zm-2.43,10.6a5.46,5.46,0,0,0,.94-3.42,5.08,5.08,0,0,0-.94-3.31,3.61,3.61,0,0,0-5.31,0,5.3,5.3,0,0,0-.94,3.35,5.35,5.35,0,0,0,.94,3.38,3.2,3.2,0,0,0,2.66,1.18A3.14,3.14,0,0,0,165.24,472.87Z"/><path class="cls-2" d="M199.14,454.72v22.83h-4.86v-2.37a5,5,0,0,1-2,1.93,6.28,6.28,0,0,1-3,.7,6.46,6.46,0,0,1-3.65-1.06,6.93,6.93,0,0,1-2.49-2.94,10.23,10.23,0,0,1-.89-4.36,10,10,0,0,1,.89-4.32,6.55,6.55,0,0,1,6.14-3.87,6.35,6.35,0,0,1,2.93.68,5,5,0,0,1,2,1.91v-9.13Zm-5.78,18.18a6.65,6.65,0,0,0,0-6.75,3.17,3.17,0,0,0-2.64-1.16,3.21,3.21,0,0,0-2.65,1.15,5.08,5.08,0,0,0-.94,3.31,5.46,5.46,0,0,0,.94,3.42,3.52,3.52,0,0,0,5.29,0Z"/><path class="cls-2" d="M217.2,470.52H206.84a4.08,4.08,0,0,0,1.25,2.77,4.38,4.38,0,0,0,2.9.86,7.67,7.67,0,0,0,2.44-.41,7.81,7.81,0,0,0,2.22-1.15l1.29,3.27a8.75,8.75,0,0,1-2.83,1.43,11.41,11.41,0,0,1-3.35.52,8.75,8.75,0,0,1-6.33-2.22,8,8,0,0,1-2.31-6,9,9,0,0,1,1-4.3,7.34,7.34,0,0,1,2.78-2.93,7.75,7.75,0,0,1,4-1.06,6.79,6.79,0,0,1,5.29,2.17,8.45,8.45,0,0,1,2,5.89Zm-9.34-5a4.42,4.42,0,0,0-1,2.57h6.25a4.2,4.2,0,0,0-.86-2.59,2.69,2.69,0,0,0-2.15-.87A2.89,2.89,0,0,0,207.86,465.52Z"/><path class="cls-2" d="M230.83,461.68h4.79l-7,15.87h-4.14l-6.9-15.87h5.08l4,10.1Z"/><path class="cls-2" d="M251.1,470.52H240.74a4.07,4.07,0,0,0,1.24,2.77,4.4,4.4,0,0,0,2.9.86,7.73,7.73,0,0,0,2.45-.41,7.88,7.88,0,0,0,2.21-1.15l1.3,3.27a8.81,8.81,0,0,1-2.84,1.43,11.36,11.36,0,0,1-3.35.52,8.79,8.79,0,0,1-6.33-2.22,8,8,0,0,1-2.31-6,9,9,0,0,1,1-4.3,7.3,7.3,0,0,1,2.79-2.93,7.69,7.69,0,0,1,4-1.06,6.81,6.81,0,0,1,5.3,2.17,8.5,8.5,0,0,1,2,5.89Zm-9.34-5a4.42,4.42,0,0,0-1,2.57H247a4.27,4.27,0,0,0-.85-2.59,2.72,2.72,0,0,0-2.16-.87A2.88,2.88,0,0,0,241.76,465.52Z"/><path class="cls-2" d="M254,477.55V454.72h4.89v22.83Z"/><path class="cls-2" d="M265.89,476.79a7.18,7.18,0,0,1-2.95-2.88,9.87,9.87,0,0,1,0-8.78,7.07,7.07,0,0,1,2.95-2.86,10.24,10.24,0,0,1,8.87,0,7.07,7.07,0,0,1,2.95,2.86,9.87,9.87,0,0,1,0,8.78,7.18,7.18,0,0,1-2.95,2.88,10.15,10.15,0,0,1-8.87,0Zm8-7.27a5.32,5.32,0,0,0-.93-3.43,3.18,3.18,0,0,0-2.63-1.14q-3.57,0-3.57,4.57t3.57,4.56Q273.89,474.08,273.89,469.52Z"/><path class="cls-2" d="M295.21,462.32a7.07,7.07,0,0,1,2.49,2.94,10.2,10.2,0,0,1,.89,4.36,10,10,0,0,1-.89,4.32,6.55,6.55,0,0,1-6.14,3.87,6.44,6.44,0,0,1-2.93-.67,4.79,4.79,0,0,1-2-1.86v8.09h-4.89V461.65h4.83v2.23a5,5,0,0,1,2-1.92,6.27,6.27,0,0,1,3-.7A6.46,6.46,0,0,1,295.21,462.32Zm-2.42,10.61a5.08,5.08,0,0,0,.94-3.31,5.46,5.46,0,0,0-.94-3.42,3.14,3.14,0,0,0-2.65-1.21,3.2,3.2,0,0,0-2.66,1.18,5.36,5.36,0,0,0-.93,3.38,5.3,5.3,0,0,0,.93,3.35,3.61,3.61,0,0,0,5.31,0Z"/><path class="cls-2" d="M315.88,470.52H305.52a4.07,4.07,0,0,0,1.24,2.77,4.4,4.4,0,0,0,2.9.86,7.62,7.62,0,0,0,2.44-.41,7.81,7.81,0,0,0,2.22-1.15l1.3,3.27a8.81,8.81,0,0,1-2.84,1.43,11.36,11.36,0,0,1-3.35.52,8.79,8.79,0,0,1-6.33-2.22,8,8,0,0,1-2.31-6,9,9,0,0,1,1-4.3,7.3,7.3,0,0,1,2.79-2.93,7.69,7.69,0,0,1,4-1.06,6.81,6.81,0,0,1,5.3,2.17,8.5,8.5,0,0,1,2,5.89Zm-9.34-5a4.42,4.42,0,0,0-1,2.57h6.24a4.27,4.27,0,0,0-.85-2.59,2.72,2.72,0,0,0-2.16-.87A2.88,2.88,0,0,0,306.54,465.52Z"/><path class="cls-2" d="M330.19,465.28l-2.76.29a4.24,4.24,0,0,0-2.88,1.15,3.69,3.69,0,0,0-.84,2.54v8.29h-4.89v-15.9h4.7v2.69q1.19-2.76,5-3l1.42-.1Z"/><path class="cls-2" d="M333.86,473h4.88v4.83h-4.88Z"/></svg>