<svg id="shapes" xmlns="http://www.w3.org/2000/svg" viewBox="0 0 370 800"><defs><style>.cls-1{fill:#0a6dc6;}.cls-2{fill:#167ddb;}.cls-3{fill:#2a91d1;}.cls-4{fill:#dda591;}.cls-5{fill:#d39c8c;}.cls-6{fill:#e2af9f;}.cls-7{fill:#74a591;}.cls-8{fill:#64997f;}.cls-9{fill:#1e80d8;}.cls-10{fill:#0e6ec4;}.cls-11{fill:#278bd6;}.cls-12{fill:#89af9f;}.cls-13{fill:#7ea896;}</style></defs><path class="cls-1" d="M333.29,747.68A15.62,15.62,0,1,0,348.9,763.3,15.62,15.62,0,0,0,333.29,747.68Zm0,22.38c-3.05,0-5.52-3-5.52-6.76s2.47-6.77,5.52-6.77,5.51,3,5.51,6.77S336.33,770.06,333.29,770.06Z"/><path class="cls-2" d="M332.23,747.68A15.23,15.23,0,1,0,347,762.9,15,15,0,0,0,332.23,747.68Zm0,24.89a9.67,9.67,0,1,1,9.36-9.67A9.52,9.52,0,0,1,332.23,772.57Z"/><path class="cls-3" d="M319,764.1c0-.06,0-.12,0-.18s0-.25,0-.37,0-.43,0-.65,0-.56,0-.84v0c.43-7.28,6.31-13.66,13.55-14.33H332c-7.89,0-14.49,7.07-14.49,15.21s6.42,15.22,14.32,15.22h.74C325.42,777.45,319.6,771.22,319,764.1Z"/><path class="cls-3" d="M338.78,762.75V763c0,.1,0,.2,0,.3s0,.25,0,.38v0c-.16,3.33-2.25,6-4.89,6.33l0,0h.27c2.88,0,5.22-3,5.22-6.76s-2.34-6.77-5.22-6.77h-.27l0,0C336.5,756.86,338.57,759.48,338.78,762.75Z"/><circle class="cls-4" cx="338.65" cy="98.57" r="22.41"/><path class="cls-5" d="M322.65,107.83a22.43,22.43,0,0,1,10-30.09,22.76,22.76,0,0,1,3.75-1.47A22.41,22.41,0,1,0,345,120.08,22.42,22.42,0,0,1,322.65,107.83Z"/><path class="cls-6" d="M338.65,76.15a19.7,19.7,0,0,0-2.26.12,25.1,25.1,0,0,0-3.2,1.21c13.21,0,23.91,11.61,23.91,24.81a23.77,23.77,0,0,1-4.29,13.65,22.41,22.41,0,0,0-14.16-39.79Z"/><path class="cls-7" d="M310.66,195.66c9.16,14.5,1.19,24.42-3.5,27.13s-13.2-3.28-19-13.37-6.75-20.46-2.06-23.17S302.15,182.18,310.66,195.66Z"/><ellipse class="cls-8" cx="296.62" cy="204.52" rx="9.8" ry="21.09" transform="translate(-62.52 175.71) rotate(-30)"/><path class="cls-9" d="M352.58,579.72c-1.78,3.12-10.33,1.6-19.09-3.4s-14.41-11.59-12.62-14.71l31.78-17.5Z"/><path class="cls-10" d="M345,580.94l7.65-36.83-.07,35.61C351.62,581.57,348.61,581.66,345,580.94Z"/><path class="cls-11" d="M327.35,572.17l25.3-28.06-29,24.64A32.22,32.22,0,0,0,327.35,572.17Z"/><path class="cls-7" d="M271,694.56c-21.69-19.38,5.44-52.42,27.9-34,4.24,4.74-4.09,12.4-7.73,9.41-5.31-4.36-10.18-2.76-13.66,1.48s-3.8,9.57,1.21,13.68S275.28,698.05,271,694.56Z"/><ellipse class="cls-12" cx="274.89" cy="689.86" rx="6.09" ry="4.71" transform="translate(-432.71 464.54) rotate(-50.61)"/><ellipse class="cls-12" cx="295.06" cy="665.29" rx="6.09" ry="4.71" transform="translate(-406.35 471.15) rotate(-50.61)"/><path class="cls-8" d="M263.92,671.93c-.39,1.7-1.18,12.41,5.87,17.75-.48,2.07-.1,3.78,1.24,4.88C267,690.89,260.84,683.69,263.92,671.93Z"/><path class="cls-8" d="M278.1,670.82c4-4.5,7-5.43,11.69-3.56A4,4,0,0,0,291.2,670a9.5,9.5,0,0,0-7.45-2.5A10.26,10.26,0,0,0,278.1,670.82Z"/><path class="cls-8" d="M280.88,655.6c3.83-.77,10.42-1.28,18.05,5a3.51,3.51,0,0,0-2.12-.84C290.26,654.93,284.36,655,280.88,655.6Z"/><path class="cls-13" d="M270.32,665.54A15.49,15.49,0,0,1,279,660a13.06,13.06,0,0,0-12.43,15.14A15.55,15.55,0,0,1,270.32,665.54Z"/></svg>