<svg xmlns="http://www.w3.org/2000/svg" viewBox="0 0 461.35 341.45"><defs><style>.cls-1{fill:#278bd6;}.cls-2{fill:#e2dfea;}</style></defs><g id="Text"><rect class="cls-1" x="-0.86" y="-0.51" width="462.21" height="131.36"/><rect class="cls-1" x="-0.86" y="186.54" width="462.21" height="68.15"/><rect class="cls-1" x="-0.86" y="273.3" width="462.21" height="68.15"/><path class="cls-2" d="M76,20.1H99v90.14H76V73.8H39.13v36.44h-23V20.1h23v35H76Z"/><path class="cls-2" d="M113,110.24V20.1H177V38.25H135.84V55.39h38.61v18H135.84V92.08H177v18.16Z"/><path class="cls-2" d="M189.68,110.24V20.1h23.53V91.19h38.36v19Z"/><path class="cls-2" d="M264.79,110.24V20.1h23.52V91.19h38.36v19Z"/><path class="cls-2" d="M351.54,105.7a38.73,38.73,0,0,1-15.66-16.11q-5.5-10.43-5.5-24.49t5.5-24.48a38.41,38.41,0,0,1,15.66-16q10.17-5.62,24-5.62t24,5.62a38.07,38.07,0,0,1,15.59,16Q420.53,51,420.52,65.1T415,89.59a38.85,38.85,0,0,1-15.66,16.11q-10.17,5.68-23.85,5.69T351.54,105.7Zm39.95-19.56q5.76-7.23,5.76-21t-5.82-21Q385.61,37,375.51,37t-16,7.09q-5.76,7.09-5.75,21t5.75,21.1q5.76,7.17,16,7.16T391.49,86.14Z"/><path class="cls-2" d="M15.9,238.72V200h8.58v38.77Z"/><path class="cls-2" d="M39.93,200v5.66a14.22,14.22,0,0,1-1.13,5.75,17.35,17.35,0,0,1-3.82,5.3l-3.24-2.58a11.9,11.9,0,0,0,3.35-5.33H31V200Z"/><path class="cls-2" d="M86,213.86q2.25,2.8,2.25,8.58v16.28h-8.3v-16a7.14,7.14,0,0,0-.85-4,3.32,3.32,0,0,0-2.89-1.21,4.47,4.47,0,0,0-3.69,1.65,7.28,7.28,0,0,0-1.31,4.62v14.91H62.86v-16a7.05,7.05,0,0,0-.85-4,3.3,3.3,0,0,0-2.89-1.21,4.45,4.45,0,0,0-3.68,1.65,7.22,7.22,0,0,0-1.32,4.62v14.91h-8.3v-27H53.9v3.63a8.5,8.5,0,0,1,3.38-3.19,10.43,10.43,0,0,1,4.87-1.1q6,0,8,5a9.59,9.59,0,0,1,3.68-3.66,10.36,10.36,0,0,1,5.22-1.35Q83.7,211.05,86,213.86Z"/><path class="cls-2" d="M130.75,213.91q2.88,2.86,2.88,8.86v15.95h-7.86v-4A6.62,6.62,0,0,1,123,238a8.43,8.43,0,0,1-4.51,1.18,11.16,11.16,0,0,1-5-1.09A8.79,8.79,0,0,1,110,235a7.92,7.92,0,0,1-1.29-4.4,6.81,6.81,0,0,1,1.52-4.68,9,9,0,0,1,4.86-2.47,42.57,42.57,0,0,1,9.18-.77h1.43v-1a4.55,4.55,0,0,0-1-3.41,5.26,5.26,0,0,0-3.63-1,15.87,15.87,0,0,0-4.4.71,21.89,21.89,0,0,0-4.62,2l-2.2-5.55a22.65,22.65,0,0,1,5.69-2.39,23.25,23.25,0,0,1,6.3-1C125.84,211.05,128.82,212,130.75,213.91Zm-6.52,17.9a6,6,0,0,0,1.48-4.2v-.94h-.93a18.65,18.65,0,0,0-6.24.72,2.59,2.59,0,0,0-1.79,2.58,3.32,3.32,0,0,0,1,2.48,3.52,3.52,0,0,0,2.55,1A5,5,0,0,0,124.23,231.81Z"/><path class="cls-2" d="M182.52,200v38.77h-8.25v-4a8.48,8.48,0,0,1-3.44,3.27,10.52,10.52,0,0,1-5,1.18,11,11,0,0,1-6.19-1.78,11.87,11.87,0,0,1-4.23-5,17.15,17.15,0,0,1-1.51-7.39,16.77,16.77,0,0,1,1.51-7.34,11.44,11.44,0,0,1,4.21-4.87,11.31,11.31,0,0,1,6.21-1.71,10.69,10.69,0,0,1,5,1.16,8.26,8.26,0,0,1,3.43,3.24V200Zm-9.82,30.87a9.1,9.1,0,0,0,1.57-5.74,9,9,0,0,0-1.57-5.72,5.38,5.38,0,0,0-4.48-2,5.5,5.5,0,0,0-4.51,2,8.73,8.73,0,0,0-1.59,5.64,9.33,9.33,0,0,0,1.59,5.8,6,6,0,0,0,9,0Z"/><path class="cls-2" d="M213.2,226.78H195.6a7,7,0,0,0,2.12,4.7,7.41,7.41,0,0,0,4.92,1.46,13.51,13.51,0,0,0,7.92-2.64l2.2,5.56a15,15,0,0,1-4.81,2.41,19,19,0,0,1-5.69.88q-6.82,0-10.75-3.76t-3.93-10.26a15.23,15.23,0,0,1,1.7-7.31,12.47,12.47,0,0,1,4.73-5,13.28,13.28,0,0,1,6.87-1.79,11.52,11.52,0,0,1,9,3.69q3.31,3.69,3.32,10Zm-15.86-8.49a7.56,7.56,0,0,0-1.74,4.37h10.62a7.17,7.17,0,0,0-1.46-4.4,4.59,4.59,0,0,0-3.66-1.49A4.88,4.88,0,0,0,197.34,218.29Z"/><path class="cls-2" d="M221.75,238.3a17,17,0,0,1-5.36-2.44l2.2-5.72a18.46,18.46,0,0,0,4.84,2.31,17.79,17.79,0,0,0,5.33.82,6,6,0,0,0,3-.63,1.94,1.94,0,0,0,1.07-1.73,1.81,1.81,0,0,0-.74-1.54,7.66,7.66,0,0,0-2.78-1l-4.4-1a11.66,11.66,0,0,1-5.74-2.72,6.81,6.81,0,0,1-1.85-5,7.18,7.18,0,0,1,1.46-4.45,9.71,9.71,0,0,1,4.13-3,15.83,15.83,0,0,1,6.07-1.1,18.42,18.42,0,0,1,5.67.89,17.39,17.39,0,0,1,4.95,2.47l-2.2,5.5a14.87,14.87,0,0,0-8.47-3,5.9,5.9,0,0,0-3,.66,2.07,2.07,0,0,0-1.1,1.87,1.62,1.62,0,0,0,.66,1.37,7.31,7.31,0,0,0,2.31.94l4.57,1a12.35,12.35,0,0,1,6,2.83,7,7,0,0,1,1.9,5.15,7.15,7.15,0,0,1-3.11,6.13q-3.1,2.22-8.55,2.22A25.75,25.75,0,0,1,221.75,238.3Z"/><path class="cls-2" d="M244.71,198.74h8.91v7.75h-8.91Zm.28,40v-27h8.3v27Z"/><path class="cls-2" d="M287.22,211.71V235.8q0,6.54-3.74,9.9t-11.05,3.35a27,27,0,0,1-7-.88,20.89,20.89,0,0,1-5.86-2.47l2.2-5.72a21.57,21.57,0,0,0,10.39,2.86q6.82,0,6.82-6.44v-3a8.19,8.19,0,0,1-3.46,3.3,11,11,0,0,1-5.17,1.2,11.77,11.77,0,0,1-6.24-1.64,11.21,11.21,0,0,1-4.26-4.71,17,17,0,0,1,0-14.13,11.45,11.45,0,0,1,4.26-4.73,11.61,11.61,0,0,1,6.24-1.68,10.91,10.91,0,0,1,5.09,1.19,8.43,8.43,0,0,1,3.49,3.27v-3.8Zm-9.87,18a7.71,7.71,0,0,0,1.62-5.22,7.81,7.81,0,0,0-1.62-5.25,6.4,6.4,0,0,0-9.1,0,7.72,7.72,0,0,0-1.65,5.25,7.62,7.62,0,0,0,1.65,5.19,6.43,6.43,0,0,0,9.1,0Z"/><path class="cls-2" d="M317.74,213.89c1.57,1.89,2.36,4.73,2.36,8.55v16.28h-8.3v-15.9a6.37,6.37,0,0,0-1-4,3.8,3.8,0,0,0-3.16-1.27,5.44,5.44,0,0,0-4.15,1.65,6.11,6.11,0,0,0-1.57,4.4v15.13h-8.3v-27h8.08v3.85a9.48,9.48,0,0,1,3.71-3.35,11.23,11.23,0,0,1,5.14-1.16Q315.38,211.05,317.74,213.89Z"/><path class="cls-2" d="M350.62,226.78H333a6.92,6.92,0,0,0,2.12,4.7,7.37,7.37,0,0,0,4.92,1.46,13,13,0,0,0,4.15-.69A13.24,13.24,0,0,0,348,230.3l2.2,5.56a15,15,0,0,1-4.81,2.41,19,19,0,0,1-5.69.88q-6.82,0-10.76-3.76T325,225.13a15.23,15.23,0,0,1,1.71-7.31,12.41,12.41,0,0,1,4.73-5,13.23,13.23,0,0,1,6.87-1.79,11.5,11.5,0,0,1,9,3.69q3.33,3.69,3.33,10Zm-15.87-8.49a7.55,7.55,0,0,0-1.73,4.37h10.61a7.11,7.11,0,0,0-1.45-4.4,4.59,4.59,0,0,0-3.66-1.49A4.9,4.9,0,0,0,334.75,218.29Z"/><path class="cls-2" d="M374.92,217.87l-4.67.5q-3.47.33-4.9,1.95a6.3,6.3,0,0,0-1.42,4.32v14.08h-8.31v-27h8v4.57q2-4.68,8.41-5.12l2.42-.16Z"/><path class="cls-2" d="M420.84,238.72,417,234.87a18.47,18.47,0,0,1-18.81,2.91,11.6,11.6,0,0,1-4.89-3.82,9.36,9.36,0,0,1-1.76-5.64,10.65,10.65,0,0,1,1.84-6.16,17.14,17.14,0,0,1,5.86-4.95,16.26,16.26,0,0,1-2.86-4.07,9.31,9.31,0,0,1-.94-4.06,8.93,8.93,0,0,1,1.41-5,9.1,9.1,0,0,1,4-3.36,14.14,14.14,0,0,1,5.89-1.18,10.94,10.94,0,0,1,7.42,2.39,8.08,8.08,0,0,1,2.75,6.41,9.23,9.23,0,0,1-1.68,5.39,15.5,15.5,0,0,1-5.3,4.45l6.65,6.55A24.94,24.94,0,0,0,419,215h6.87a29.19,29.19,0,0,1-4.34,14.63l9.24,9.08Zm-8.47-8.42-8.85-8.8q-3.91,2.48-3.91,6.27a4.55,4.55,0,0,0,1.62,3.71,6.63,6.63,0,0,0,4.38,1.35A10.53,10.53,0,0,0,412.37,230.3ZM404,206.13a3.84,3.84,0,0,0-1.1,2.89,4.52,4.52,0,0,0,.63,2.26,15.09,15.09,0,0,0,2.23,2.74,12.61,12.61,0,0,0,3.52-2.61,4.21,4.21,0,0,0,1-2.78,3.55,3.55,0,0,0-1-2.58,3.34,3.34,0,0,0-2.5-1A3.93,3.93,0,0,0,404,206.13Z"/><path class="cls-2" d="M50.33,297.52h8.08l-10.94,27h-7l-5.94-15.23-5.77,15.23h-7l-11-27H19.2l6.38,17.11L32,297.52h5.61L44,314.79Z"/><path class="cls-2" d="M85.25,312.59H67.65a6.94,6.94,0,0,0,2.12,4.7,7.43,7.43,0,0,0,4.92,1.46,13,13,0,0,0,4.15-.69,13.49,13.49,0,0,0,3.77-1.95l2.2,5.55A14.88,14.88,0,0,1,80,324.08a19,19,0,0,1-5.7.88q-6.81,0-10.75-3.76t-3.93-10.26a15.2,15.2,0,0,1,1.71-7.31,12.41,12.41,0,0,1,4.73-5,13.23,13.23,0,0,1,6.87-1.79,11.51,11.51,0,0,1,9,3.69q3.33,3.69,3.33,10Zm-15.87-8.5a7.59,7.59,0,0,0-1.73,4.38H78.26a7.17,7.17,0,0,0-1.45-4.4,4.6,4.6,0,0,0-3.66-1.49A4.93,4.93,0,0,0,69.38,304.09Z"/><path class="cls-2" d="M113.18,298.57a11.41,11.41,0,0,1,4.21,4.86,16.84,16.84,0,0,1,1.51,7.35,17.15,17.15,0,0,1-1.51,7.39,11.82,11.82,0,0,1-4.24,5A11,11,0,0,1,107,325a10.7,10.7,0,0,1-5.06-1.18,8.44,8.44,0,0,1-3.47-3.27v4H90.25V285.76h8.3v15.39A8.29,8.29,0,0,1,102,298a10.89,10.89,0,0,1,5-1.13A11.36,11.36,0,0,1,113.18,298.57Zm-4.12,18a9.33,9.33,0,0,0,1.59-5.8,8.73,8.73,0,0,0-1.59-5.64,5.51,5.51,0,0,0-4.51-1.95,5.43,5.43,0,0,0-4.51,2,11,11,0,0,0,0,11.44,6,6,0,0,0,9-.05Z"/><path class="cls-2" d="M166.63,285.76v38.76h-8.25v-4a8.45,8.45,0,0,1-3.43,3.27,10.59,10.59,0,0,1-5,1.18,11,11,0,0,1-6.18-1.78,11.82,11.82,0,0,1-4.24-5,17.3,17.3,0,0,1-1.51-7.39,17,17,0,0,1,1.51-7.35,11.1,11.1,0,0,1,10.42-6.57,10.63,10.63,0,0,1,5,1.16,8.28,8.28,0,0,1,3.44,3.24v-15.5Zm-9.81,30.87a9.19,9.19,0,0,0,1.56-5.74,9.06,9.06,0,0,0-1.56-5.72,5.4,5.4,0,0,0-4.49-2,5.51,5.51,0,0,0-4.51,1.95,8.73,8.73,0,0,0-1.59,5.64,9.33,9.33,0,0,0,1.59,5.8,6,6,0,0,0,9,.05Z"/><path class="cls-2" d="M197.32,312.59h-17.6a6.9,6.9,0,0,0,2.12,4.7,7.43,7.43,0,0,0,4.92,1.46,13,13,0,0,0,4.15-.69,13.63,13.63,0,0,0,3.77-1.95l2.2,5.55a14.83,14.83,0,0,1-4.82,2.42,19,19,0,0,1-5.69.88q-6.81,0-10.75-3.76t-3.93-10.26a15.2,15.2,0,0,1,1.71-7.31,12.45,12.45,0,0,1,4.72-5,13.29,13.29,0,0,1,6.88-1.79,11.51,11.51,0,0,1,9,3.69q3.33,3.69,3.33,10Zm-15.87-8.5a7.59,7.59,0,0,0-1.73,4.38h10.61a7.17,7.17,0,0,0-1.45-4.4,4.62,4.62,0,0,0-3.66-1.49A4.93,4.93,0,0,0,181.45,304.09Z"/><path class="cls-2" d="M220.47,297.58h8.14l-11.88,26.94h-7L198,297.58h8.63l6.82,17.15Z"/><path class="cls-2" d="M254.89,312.59h-17.6a6.94,6.94,0,0,0,2.12,4.7,7.43,7.43,0,0,0,4.92,1.46,13,13,0,0,0,4.15-.69,13.49,13.49,0,0,0,3.77-1.95l2.2,5.55a14.88,14.88,0,0,1-4.81,2.42A19,19,0,0,1,244,325q-6.82,0-10.76-3.76t-3.93-10.26a15.2,15.2,0,0,1,1.71-7.31,12.41,12.41,0,0,1,4.73-5,13.23,13.23,0,0,1,6.87-1.79,11.51,11.51,0,0,1,9,3.69q3.33,3.69,3.33,10ZM239,304.09a7.59,7.59,0,0,0-1.73,4.38H247.9a7.17,7.17,0,0,0-1.45-4.4,4.59,4.59,0,0,0-3.66-1.49A4.93,4.93,0,0,0,239,304.09Z"/><path class="cls-2" d="M259.89,324.52V285.76h8.31v38.76Z"/><path class="cls-2" d="M280,323.23a12.11,12.11,0,0,1-5-4.89,16.67,16.67,0,0,1,0-14.91,12,12,0,0,1,5-4.86,17.43,17.43,0,0,1,15.06,0,11.92,11.92,0,0,1,5,4.86,16.67,16.67,0,0,1,0,14.91,12.05,12.05,0,0,1-5,4.89,17.25,17.25,0,0,1-15.06,0Zm13.58-12.34q0-3.92-1.57-5.83a5.43,5.43,0,0,0-4.48-1.93q-6,0-6.05,7.76t6.05,7.75Q293.59,318.64,293.6,310.89Z"/><path class="cls-2" d="M329.81,298.65a11.85,11.85,0,0,1,4.24,5,17.34,17.34,0,0,1,1.51,7.4,16.94,16.94,0,0,1-1.51,7.34A11.06,11.06,0,0,1,323.62,325a10.84,10.84,0,0,1-5-1.12,8.25,8.25,0,0,1-3.44-3.17v13.75h-8.3v-36.9h8.19v3.8a8.37,8.37,0,0,1,3.47-3.27,10.69,10.69,0,0,1,5.05-1.19A11,11,0,0,1,329.81,298.65Zm-4.1,18a8.68,8.68,0,0,0,1.6-5.64,9.24,9.24,0,0,0-1.6-5.8,5.34,5.34,0,0,0-4.51-2.06,5.43,5.43,0,0,0-4.5,2,9,9,0,0,0-1.6,5.75,8.9,8.9,0,0,0,1.6,5.69,5.41,5.41,0,0,0,4.5,2A5.48,5.48,0,0,0,325.71,316.69Z"/><path class="cls-2" d="M364.92,312.59h-17.6a7,7,0,0,0,2.12,4.7,7.46,7.46,0,0,0,4.92,1.46,13.05,13.05,0,0,0,4.16-.69,13.44,13.44,0,0,0,3.76-1.95l2.2,5.55a14.78,14.78,0,0,1-4.81,2.42A19,19,0,0,1,354,325q-6.83,0-10.75-3.76t-3.93-10.26a15.2,15.2,0,0,1,1.7-7.31,12.47,12.47,0,0,1,4.73-5,13.28,13.28,0,0,1,6.87-1.79,11.52,11.52,0,0,1,9,3.69q3.31,3.69,3.32,10Zm-15.86-8.5a7.59,7.59,0,0,0-1.74,4.38h10.62a7.17,7.17,0,0,0-1.46-4.4,4.59,4.59,0,0,0-3.66-1.49A4.9,4.9,0,0,0,349.06,304.09Z"/><path class="cls-2" d="M389.23,303.68l-4.68.5q-3.46.33-4.89,1.95a6.26,6.26,0,0,0-1.43,4.32v14.07h-8.3v-27h8v4.57q2-4.68,8.41-5.12l2.42-.16Z"/><path class="cls-2" d="M395.46,316.76h8.3V325h-8.3Z"/></g></svg>