<svg id="tiles" xmlns="http://www.w3.org/2000/svg" viewBox="0 0 370 1023.38"><defs><style>.cls-1{fill:none;stroke:#33303a;stroke-miterlimit:10;stroke-width:2px;}</style></defs><line class="cls-1" x1="-5.06" y1="1.01" x2="375.06" y2="1.01"/><line class="cls-1" x1="-5.06" y1="30.25" x2="375.06" y2="30.25"/><line class="cls-1" x1="-5.06" y1="59.49" x2="375.06" y2="59.49"/><line class="cls-1" x1="-5.06" y1="88.73" x2="375.06" y2="88.73"/><line class="cls-1" x1="-5.06" y1="117.97" x2="375.06" y2="117.97"/><line class="cls-1" x1="-5.06" y1="147.21" x2="375.06" y2="147.21"/><line class="cls-1" x1="-5.06" y1="176.45" x2="375.06" y2="176.45"/><line class="cls-1" x1="-5.06" y1="205.69" x2="375.06" y2="205.69"/><line class="cls-1" x1="-5.06" y1="234.92" x2="375.06" y2="234.92"/><line class="cls-1" x1="-5.06" y1="264.16" x2="375.06" y2="264.16"/><line class="cls-1" x1="170.38" y1="1.01" x2="170.38" y2="1139.36"/><line class="cls-1" x1="141.14" y1="1.01" x2="141.14" y2="1139.36"/><line class="cls-1" x1="111.9" y1="1.01" x2="111.9" y2="1139.36"/><line class="cls-1" x1="82.66" y1="1.01" x2="82.66" y2="1139.36"/><line class="cls-1" x1="53.42" y1="1.01" x2="53.42" y2="1139.36"/><line class="cls-1" x1="24.18" y1="1.01" x2="24.18" y2="1139.36"/><line class="cls-1" x1="345.82" y1="1.01" x2="345.82" y2="1139.36"/><line class="cls-1" x1="316.58" y1="1.01" x2="316.58" y2="1139.36"/><line class="cls-1" x1="287.34" y1="1.01" x2="287.34" y2="1139.36"/><line class="cls-1" x1="258.1" y1="1.01" x2="258.1" y2="1139.36"/><line class="cls-1" x1="228.86" y1="1.01" x2="228.86" y2="1139.36"/><line class="cls-1" x1="199.62" y1="1.01" x2="199.62" y2="1139.36"/><line class="cls-1" x1="-5.06" y1="264.16" x2="375.06" y2="264.16"/><line class="cls-1" x1="-5.06" y1="293.4" x2="375.06" y2="293.4"/><line class="cls-1" x1="-5.06" y1="322.64" x2="375.06" y2="322.64"/><line class="cls-1" x1="-5.06" y1="349.89" x2="375.06" y2="349.89"/><line class="cls-1" x1="-5.06" y1="379.13" x2="375.06" y2="379.13"/><line class="cls-1" x1="-5.06" y1="408.37" x2="375.06" y2="408.37"/><line class="cls-1" x1="-5.06" y1="437.61" x2="375.06" y2="437.61"/><line class="cls-1" x1="-5.06" y1="466.85" x2="375.06" y2="466.85"/><line class="cls-1" x1="-5.06" y1="496.09" x2="375.06" y2="496.09"/><line class="cls-1" x1="-5.06" y1="525.33" x2="375.06" y2="525.33"/><line class="cls-1" x1="-5.06" y1="554.57" x2="375.06" y2="554.57"/><line class="cls-1" x1="-5.06" y1="583.81" x2="375.06" y2="583.81"/><line class="cls-1" x1="-5.06" y1="613.05" x2="375.06" y2="613.05"/><line class="cls-1" x1="-5.06" y1="642.29" x2="375.06" y2="642.29"/><line class="cls-1" x1="-5.06" y1="671.53" x2="375.06" y2="671.53"/><line class="cls-1" x1="-5.06" y1="700.77" x2="375.06" y2="700.77"/><line class="cls-1" x1="-5.06" y1="730.01" x2="375.06" y2="730.01"/><line class="cls-1" x1="-5.06" y1="759.24" x2="375.06" y2="759.24"/><line class="cls-1" x1="-5.06" y1="788.48" x2="375.06" y2="788.48"/><line class="cls-1" x1="-5.06" y1="817.72" x2="375.06" y2="817.72"/><line class="cls-1" x1="-5.06" y1="846.96" x2="375.06" y2="846.96"/><line class="cls-1" x1="-5.06" y1="876.2" x2="375.06" y2="876.2"/><line class="cls-1" x1="-5.06" y1="905.44" x2="375.06" y2="905.44"/><line class="cls-1" x1="-5.06" y1="934.68" x2="375.06" y2="934.68"/><line class="cls-1" x1="-5.06" y1="963.92" x2="375.06" y2="963.92"/><line class="cls-1" x1="-5.06" y1="993.16" x2="375.06" y2="993.16"/><line class="cls-1" x1="-5.06" y1="1022.4" x2="375.06" y2="1022.4"/></svg>