<svg xmlns="http://www.w3.org/2000/svg" viewBox="0 0 370 800"><defs><style>.cls-1{fill:#e2dfea;}.cls-2{fill:none;stroke:#33303a;stroke-miterlimit:10;stroke-width:4px;}</style></defs><g id="black"><rect class="cls-1" width="372.64" height="800"/></g><g id="tiles"><line class="cls-2" x1="-3.97" x2="376.29"/><line class="cls-2" x1="-3.97" y1="38.03" x2="376.29" y2="38.03"/><line class="cls-2" x1="-3.97" y1="76.05" x2="376.29" y2="76.05"/><line class="cls-2" x1="-3.97" y1="114.08" x2="376.29" y2="114.08"/><line class="cls-2" x1="-3.97" y1="152.11" x2="376.29" y2="152.11"/><line class="cls-2" x1="-3.97" y1="190.13" x2="376.29" y2="190.13"/><line class="cls-2" x1="-3.97" y1="228.16" x2="376.29" y2="228.16"/><line class="cls-2" x1="-3.97" y1="266.18" x2="376.29" y2="266.18"/><line class="cls-2" x1="-3.97" y1="304.21" x2="376.29" y2="304.21"/><line class="cls-2" x1="-3.97" y1="342.24" x2="376.29" y2="342.24"/><line class="cls-2" x1="-3.97" y1="380.26" x2="376.29" y2="380.26"/><line class="cls-2" x1="-3.97" y1="418.29" x2="376.29" y2="418.29"/><line class="cls-2" x1="-3.97" y1="456.32" x2="376.29" y2="456.32"/><line class="cls-2" x1="-3.97" y1="494.34" x2="376.29" y2="494.34"/><line class="cls-2" x1="-3.97" y1="532.37" x2="376.29" y2="532.37"/><line class="cls-2" x1="-3.97" y1="570.39" x2="376.29" y2="570.39"/><line class="cls-2" x1="-3.97" y1="608.42" x2="376.29" y2="608.42"/><line class="cls-2" x1="-3.97" y1="646.45" x2="376.29" y2="646.45"/><line class="cls-2" x1="-3.97" y1="684.47" x2="376.29" y2="684.47"/><line class="cls-2" x1="-3.97" y1="722.5" x2="376.29" y2="722.5"/><line class="cls-2" x1="338.26" x2="338.26" y2="798.55"/><line class="cls-2" x1="300.24" x2="300.24" y2="798.55"/><line class="cls-2" x1="262.21" x2="262.21" y2="798.55"/><line class="cls-2" x1="224.18" x2="224.18" y2="798.55"/><line class="cls-2" x1="186.16" x2="186.16" y2="798.55"/><line class="cls-2" x1="148.13" x2="148.13" y2="798.55"/><line class="cls-2" x1="110.11" x2="110.11" y2="798.55"/><line class="cls-2" x1="72.08" x2="72.08" y2="798.55"/><line class="cls-2" x1="34.05" x2="34.05" y2="798.55"/><line class="cls-2" x1="-3.97" y1="722.5" x2="376.29" y2="722.5"/><line class="cls-2" x1="-3.97" y1="760.53" x2="376.29" y2="760.53"/><line class="cls-2" x1="-3.97" y1="798.55" x2="376.29" y2="798.55"/></g></svg>