<svg id="tiles" xmlns="http://www.w3.org/2000/svg" viewBox="0 0 370 800"><defs><style>.cls-1{fill:none;stroke:#33303a;stroke-miterlimit:10;stroke-width:2px;}</style></defs><line class="cls-1" x1="-5.06" y1="20.88" x2="375.06" y2="20.88"/><line class="cls-1" x1="-5.06" y1="50.12" x2="375.06" y2="50.12"/><line class="cls-1" x1="-5.06" y1="79.36" x2="375.06" y2="79.36"/><line class="cls-1" x1="-5.06" y1="108.6" x2="375.06" y2="108.6"/><line class="cls-1" x1="-5.06" y1="137.84" x2="375.06" y2="137.84"/><line class="cls-1" x1="-5.06" y1="167.08" x2="375.06" y2="167.08"/><line class="cls-1" x1="-5.06" y1="196.32" x2="375.06" y2="196.32"/><line class="cls-1" x1="-5.06" y1="225.56" x2="375.06" y2="225.56"/><line class="cls-1" x1="-5.06" y1="254.8" x2="375.06" y2="254.8"/><line class="cls-1" x1="170.38" y1="-8.36" x2="170.38" y2="808.36"/><line class="cls-1" x1="141.14" y1="-8.36" x2="141.14" y2="808.36"/><line class="cls-1" x1="111.9" y1="-8.36" x2="111.9" y2="808.36"/><line class="cls-1" x1="82.66" y1="-8.36" x2="82.66" y2="808.36"/><line class="cls-1" x1="53.42" y1="-8.36" x2="53.42" y2="808.36"/><line class="cls-1" x1="24.18" y1="-8.36" x2="24.18" y2="808.36"/><line class="cls-1" x1="345.82" y1="-8.36" x2="345.82" y2="808.36"/><line class="cls-1" x1="316.58" y1="-8.36" x2="316.58" y2="808.36"/><line class="cls-1" x1="287.34" y1="-8.36" x2="287.34" y2="808.36"/><line class="cls-1" x1="258.1" y1="-8.36" x2="258.1" y2="808.36"/><line class="cls-1" x1="228.86" y1="-8.36" x2="228.86" y2="808.36"/><line class="cls-1" x1="199.62" y1="-8.36" x2="199.62" y2="808.36"/><line class="cls-1" x1="-5.06" y1="254.8" x2="375.06" y2="254.8"/><line class="cls-1" x1="-5.06" y1="284.04" x2="375.06" y2="284.04"/><line class="cls-1" x1="-5.06" y1="313.28" x2="375.06" y2="313.28"/><line class="cls-1" x1="-5.06" y1="340.53" x2="375.06" y2="340.53"/><line class="cls-1" x1="-5.06" y1="369.77" x2="375.06" y2="369.77"/><line class="cls-1" x1="-5.06" y1="399.01" x2="375.06" y2="399.01"/><line class="cls-1" x1="-5.06" y1="428.25" x2="375.06" y2="428.25"/><line class="cls-1" x1="-5.06" y1="457.48" x2="375.06" y2="457.48"/><line class="cls-1" x1="-5.06" y1="486.72" x2="375.06" y2="486.72"/><line class="cls-1" x1="-5.06" y1="515.96" x2="375.06" y2="515.96"/><line class="cls-1" x1="-5.06" y1="545.2" x2="375.06" y2="545.2"/><line class="cls-1" x1="-5.06" y1="574.44" x2="375.06" y2="574.44"/><line class="cls-1" x1="-5.06" y1="603.68" x2="375.06" y2="603.68"/><line class="cls-1" x1="-5.06" y1="632.92" x2="375.06" y2="632.92"/><line class="cls-1" x1="-5.06" y1="662.16" x2="375.06" y2="662.16"/><line class="cls-1" x1="-5.06" y1="691.4" x2="375.06" y2="691.4"/><line class="cls-1" x1="-5.06" y1="720.64" x2="375.06" y2="720.64"/><line class="cls-1" x1="-5.06" y1="749.88" x2="375.06" y2="749.88"/><line class="cls-1" x1="-5.06" y1="779.12" x2="375.06" y2="779.12"/></svg>