<svg xmlns="http://www.w3.org/2000/svg" viewBox="0 0 104.83 77.53"><defs><style>.cls-1{fill:#dda591;}.cls-2{fill:#e2af9f;}.cls-3{fill:#d39c8c;}</style></defs><g id="shapes"><path class="cls-1" d="M.49,35C26.84-30.61,124.75,4,101.2,70.59c-7.29,13.61-31.7.93-27.88-9.86,5.56-15.75-2.1-25.55-14.68-30s-25-.75-30.26,14.09S-4,47.56.49,35Z"/><ellipse class="cls-2" cx="14.44" cy="39.9" rx="11.45" ry="14.79" transform="translate(-27.99 40.2) rotate(-70.52)"/><ellipse class="cls-2" cx="87.26" cy="65.66" rx="11.45" ry="14.79" transform="translate(-3.74 126.03) rotate(-70.52)"/><path class="cls-3" d="M46.31,0C42.11.52,17,7.57,10.63,28.1,5.51,28.72,1.9,31,.49,35,5.57,22.76,16.9,2.69,46.31,0Z"/><path class="cls-3" d="M60.59,31.49c13.6,5.44,18.17,11.4,17.8,23.75a9.61,9.61,0,0,0-5.07,5.49c2.1-6.06,3-12.36-.46-19.09C70.77,37.55,65.89,33.7,60.59,31.49Z"/><path class="cls-3" d="M97.66,25.23c4.92,8.13,11.54,22.76,3.54,45.36a8.44,8.44,0,0,0,.19-5.53C106.94,46.11,101.92,32.68,97.66,25.23Z"/><path class="cls-2" d="M66.22,9.33A37.68,37.68,0,0,1,86.05,24.64C83.63,17.83,76.9,10,67.19,6.58S47.33,5,41.17,8.76A38,38,0,0,1,66.22,9.33Z"/></g></svg>