<svg xmlns="http://www.w3.org/2000/svg" viewBox="0 0 71.11 76.25"><defs><style>.cls-1{fill:#74a591;}.cls-2{fill:#89af9f;}.cls-3{fill:#64997f;}.cls-4{fill:#7ea896;}</style></defs><g id="shapes"><path class="cls-1" d="M15.09,74.73C-26,38,25.4-24.67,68,10.3c8.05,9-7.74,23.51-14.65,17.84-10.07-8.27-19.3-5.25-25.9,2.79s-7.2,18.16,2.3,26S23.14,81.35,15.09,74.73Z"/><ellipse class="cls-2" cx="22.41" cy="65.81" rx="11.54" ry="8.94" transform="translate(-42.67 41.37) rotate(-50.61)"/><ellipse class="cls-2" cx="60.67" cy="19.22" rx="11.54" ry="8.94" transform="translate(7.32 53.91) rotate(-50.61)"/><path class="cls-3" d="M1.6,31.82C.87,35-.63,55.35,12.74,65.47c-.9,3.92-.2,7.17,2.35,9.26C7.48,67.76-4.24,54.12,1.6,31.82Z"/><path class="cls-3" d="M28.5,29.71C36.11,21.17,41.7,19.4,50.66,23a7.6,7.6,0,0,0,2.68,5.19C49.45,25,45.07,22.66,39.22,23.4,35.66,23.85,31.53,26.41,28.5,29.71Z"/><path class="cls-3" d="M33.77.84C41-.61,53.53-1.58,68,10.3a6.62,6.62,0,0,0-4-1.61C51.55-.42,40.37-.3,33.77.84Z"/><path class="cls-4" d="M13.74,19.69A29.42,29.42,0,0,1,30.24,9.2c-5.63,0-13.16,2.83-18.26,9A24.72,24.72,0,0,0,6.66,37.92,29.66,29.66,0,0,1,13.74,19.69Z"/></g></svg>