<svg xmlns="http://www.w3.org/2000/svg" viewBox="0 0 80.99 62.22"><defs><style>.cls-1{fill:#167ddb;}.cls-2{fill:#2a91d1;}.cls-3{fill:#0e6ec4;}.cls-4{fill:#278bd6;}</style></defs><g id="shapes"><path class="cls-1" d="M78.22,5.09C96.27,57.13,21,86.85.78,35.66-1.9,23.92,18.94,18.89,22.22,27.19c4.78,12.11,14.3,14,24,10.13S61.28,25,56.77,13.55,74.39-4.6,78.22,5.09Z"/><ellipse class="cls-2" cx="67.5" cy="9.32" rx="11.53" ry="8.92" transform="translate(1.29 25.43) rotate(-21.54)"/><ellipse class="cls-2" cx="11.5" cy="31.42" rx="11.53" ry="8.92" transform="translate(-10.73 6.42) rotate(-21.54)"/><path class="cls-3" d="M69.16,49.08c2.2-2.45,13.37-19.45,6.61-34.77,2.69-3,3.65-6.17,2.45-9.22C81.48,14.86,85.08,32.45,69.16,49.08Z"/><path class="cls-3" d="M44.66,37.87C33.88,41.63,28.14,40.46,22,33a7.59,7.59,0,0,0,.18-5.83c1.86,4.64,4.56,8.79,10,11C35.57,39.52,40.41,39.28,44.66,37.87Z"/><path class="cls-4" d="M26.06,60.52C19,58.25,7.64,53,.78,35.66A6.59,6.59,0,0,0,3.49,39C9.92,53,19.74,58.31,26.06,60.52Z"/><path class="cls-4" d="M52.68,53.78a29.38,29.38,0,0,1-19.49,1.15c4.91,2.76,12.86,3.91,20.33,1A24.66,24.66,0,0,0,67.71,41.3,29.61,29.61,0,0,1,52.68,53.78Z"/></g></svg>