<svg xmlns="http://www.w3.org/2000/svg" viewBox="0 0 428.39 514.75"><defs><style>.cls-1{fill:#dda591;stroke:#9b5545;stroke-miterlimit:10;stroke-width:2px;}</style></defs><g id="shapes"><rect class="cls-1" x="119.46" y="338.26" width="55.01" height="19.82" rx="8.14" transform="translate(-230.29 370.61) rotate(-70.52)"/><rect class="cls-1" x="250.59" y="133.49" width="55.01" height="19.82" rx="8.14" transform="translate(50.16 357.76) rotate(-70.52)"/><rect class="cls-1" x="341.33" y="165.59" width="55.01" height="19.82" rx="8.14" transform="translate(80.38 464.7) rotate(-70.52)"/><rect class="cls-1" x="302.09" y="62.89" width="55.01" height="19.82" rx="8.14" transform="translate(151.05 359.25) rotate(-70.52)"/><rect class="cls-1" x="377.22" y="80.49" width="55.01" height="19.82" rx="8.14" transform="translate(54.61 312.66) rotate(-45)"/><rect class="cls-1" x="326.27" y="105.46" width="55.01" height="19.82" rx="8.14" transform="translate(127.02 410.42) rotate(-70.52)"/><rect class="cls-1" x="144.55" y="382.52" width="55.01" height="19.82" rx="8.14" transform="translate(-255.29 423.77) rotate(-70.52)"/><rect class="cls-1" x="89.43" y="228.53" width="55.01" height="19.82" rx="8.14" transform="translate(-146.85 269.17) rotate(-70.52)"/><rect class="cls-1" x="254.42" y="262.66" width="55.01" height="19.82" rx="8.14" transform="translate(-69.06 447.46) rotate(-70.52)"/><rect class="cls-1" x="262.67" y="329.11" width="55.01" height="19.82" rx="8.14" transform="translate(-126.21 499.53) rotate(-70.52)"/><rect class="cls-1" x="302.09" y="230.78" width="55.01" height="19.82" rx="8.14" transform="translate(-7.23 471.16) rotate(-70.52)"/><rect class="cls-1" x="174.92" y="135.56" width="55.01" height="19.82" rx="8.14" transform="translate(-2.22 287.79) rotate(-70.52)"/><rect class="cls-1" x="75.65" y="358.15" width="55.01" height="19.82" rx="8.14" transform="translate(-274.32 428.23) rotate(-83.4)"/><rect class="cls-1" x="220.63" y="213.73" width="55.01" height="19.82" rx="8.14" transform="translate(24.49 471.78) rotate(-90)"/><rect class="cls-1" x="366.22" y="22.94" width="55.01" height="19.82" rx="8.14" transform="translate(360.87 426.57) rotate(-90)"/><rect class="cls-1" x="60.45" y="438.62" width="55.01" height="19.82" rx="8.14" transform="translate(-360.58 536.49) rotate(-90)"/><rect class="cls-1" x="1.34" y="477.58" width="55.01" height="19.82" rx="8.14" transform="translate(-415.95 285.89) rotate(-62.23)"/><rect class="cls-1" x="126.63" y="262.66" width="55.01" height="19.82" rx="8.14" transform="translate(-157.32 240.22) rotate(-54.58)"/><rect class="cls-1" x="341.33" y="228.53" width="55.01" height="19.82" rx="8.14" transform="translate(-39.24 400.84) rotate(-54.58)"/><rect class="cls-1" x="27.51" y="377.95" width="55.01" height="19.82" rx="8.14" transform="translate(-292.95 207.92) rotate(-54.58)"/><rect class="cls-1" x="262.67" y="186.23" width="55.01" height="19.82" rx="8.14" transform="translate(-37.84 318.95) rotate(-54.58)"/><rect class="cls-1" x="176.3" y="201.05" width="55.01" height="19.82" rx="8.14" transform="translate(-86.23 254.79) rotate(-54.58)"/><rect class="cls-1" x="181.58" y="290.66" width="55.01" height="19.82" rx="8.14" transform="translate(-138.53 185.59) rotate(-36.87)"/></g></svg>