<svg xmlns="http://www.w3.org/2000/svg" viewBox="0 0 438.11 533.49"><defs><style>.cls-1{fill:#dda591;stroke:#9b5545;stroke-miterlimit:10;stroke-width:2px;}</style></defs><g id="shapes"><rect class="cls-1" x="118.22" y="348.92" width="56.25" height="20.27" rx="10.14" transform="translate(-240.96 377.29) rotate(-70.52)"/><rect class="cls-1" x="252.33" y="139.52" width="56.25" height="20.27" rx="10.14" transform="translate(45.84 364.14) rotate(-70.52)"/><rect class="cls-1" x="345.12" y="172.34" width="56.25" height="20.27" rx="10.14" transform="matrix(0.33, -0.94, 0.94, 0.33, 76.74, 473.5)"/><rect class="cls-1" x="304.99" y="67.32" width="56.25" height="20.27" rx="10.14" transform="translate(149.01 365.67) rotate(-70.52)"/><rect class="cls-1" x="381.82" y="85.32" width="56.25" height="20.27" rx="10.14" transform="translate(52.57 317.84) rotate(-45)"/><rect class="cls-1" x="329.71" y="110.86" width="56.25" height="20.27" rx="10.14" transform="translate(124.44 418) rotate(-70.52)"/><rect class="cls-1" x="143.88" y="394.19" width="56.25" height="20.27" rx="10.14" transform="translate(-266.53 431.65) rotate(-70.52)"/><rect class="cls-1" x="87.52" y="236.71" width="56.25" height="20.27" rx="10.14" transform="translate(-155.64 273.55) rotate(-70.52)"/><rect class="cls-1" x="256.24" y="271.61" width="56.25" height="20.27" rx="10.14" transform="translate(-76.09 455.87) rotate(-70.52)"/><rect class="cls-1" x="264.67" y="339.57" width="56.25" height="20.27" rx="10.14" transform="translate(-134.53 509.12) rotate(-70.52)"/><rect class="cls-1" x="304.99" y="239.01" width="56.25" height="20.27" rx="10.14" transform="translate(-12.86 480.11) rotate(-70.52)"/><rect class="cls-1" x="174.94" y="141.63" width="56.25" height="20.27" rx="10.14" transform="translate(-7.73 292.6) rotate(-70.52)"/><rect class="cls-1" x="73.42" y="369.26" width="56.25" height="20.27" rx="10.14" transform="translate(-287.01 436.67) rotate(-83.4)"/><rect class="cls-1" x="221.68" y="221.58" width="56.25" height="20.27" rx="10.14" transform="translate(18.1 481.52) rotate(-90)"/><rect class="cls-1" x="370.57" y="26.46" width="56.25" height="20.27" rx="10.14" transform="translate(362.1 435.29) rotate(-90)"/><rect class="cls-1" x="57.88" y="451.56" width="56.25" height="20.27" rx="10.14" transform="translate(-375.69 547.7) rotate(-90)"/><rect class="cls-1" x="-2.58" y="491.41" width="56.25" height="20.27" rx="10.14" transform="translate(-430.14 290.48) rotate(-62.23)"/><rect class="cls-1" x="125.55" y="271.61" width="56.25" height="20.27" rx="10.14" transform="translate(-164.99 243.71) rotate(-54.58)"/><rect class="cls-1" x="345.12" y="236.71" width="56.25" height="20.27" rx="10.14" transform="translate(-44.23 407.97) rotate(-54.58)"/><rect class="cls-1" x="24.19" y="389.51" width="56.25" height="20.27" rx="10.14" transform="translate(-303.69 210.67) rotate(-54.58)"/><rect class="cls-1" x="264.67" y="193.45" width="56.25" height="20.27" rx="10.14" transform="translate(-42.8 324.22) rotate(-54.58)"/><rect class="cls-1" x="176.35" y="208.61" width="56.25" height="20.27" rx="10.14" transform="translate(-92.29 258.61) rotate(-54.58)"/><rect class="cls-1" x="181.75" y="300.25" width="56.25" height="20.27" rx="10.14" transform="translate(-144.26 188.03) rotate(-36.87)"/></g></svg>