<svg xmlns="http://www.w3.org/2000/svg" viewBox="0 0 144.16 144.18"><defs><style>.cls-1{fill:#dda591;}.cls-2{fill:#d39c8c;}.cls-3{fill:#e2af9f;}</style></defs><g id="shapes"><circle class="cls-1" cx="72.22" cy="72.1" r="69.75"/><path class="cls-2" d="M22.42,100.91A69.7,69.7,0,0,1,65.18,2.71,69.75,69.75,0,1,0,91.82,139,69.76,69.76,0,0,1,22.42,100.91Z"/><path class="cls-3" d="M72.22,2.34a64,64,0,0,0-7,.37,78.12,78.12,0,0,0-10,3.75c41.08,0,74.38,36.14,74.38,77.22a74,74,0,0,1-13.34,42.49,69.75,69.75,0,0,0-44-123.83Z"/></g></svg>