<svg id="shapes" xmlns="http://www.w3.org/2000/svg" viewBox="0 0 1430.05 776.31"><defs><style>.cls-1,.cls-8{fill:#dda591;}.cls-1{stroke:#9b5545;stroke-miterlimit:10;stroke-width:2px;}.cls-2{fill:#64997f;}.cls-3{fill:#74a591;}.cls-4{fill:#89af9f;}.cls-5{fill:#0a6dc6;}.cls-6{fill:#167ddb;}.cls-7{fill:#2a91d1;}.cls-9{fill:#d39c8c;}.cls-10{fill:#e2af9f;}.cls-11{fill:#0e6ec4;}.cls-12{fill:#1e80d8;}.cls-13{fill:#278bd6;}.cls-14{fill:#7ea896;}</style></defs><rect class="cls-1" x="121.86" y="358.63" width="49.01" height="17.66" rx="8.14" transform="translate(-248.87 382.9) rotate(-70.52)"/><rect class="cls-1" x="238.7" y="176.18" width="49.01" height="17.66" rx="8.14" transform="translate(1.01 371.45) rotate(-70.52)"/><rect class="cls-1" x="319.55" y="204.78" width="49.01" height="17.66" rx="8.14" transform="translate(27.93 466.73) rotate(-70.52)"/><rect class="cls-1" x="284.58" y="113.28" width="49.01" height="17.66" rx="8.14" transform="translate(90.9 372.78) rotate(-70.52)"/><rect class="cls-1" x="351.52" y="128.96" width="49.01" height="17.66" rx="8.14" transform="translate(12.7 306.25) rotate(-45)"/><rect class="cls-1" x="306.12" y="151.21" width="49.01" height="17.66" rx="8.14" transform="translate(69.49 418.37) rotate(-70.52)"/><rect class="cls-1" x="144.22" y="398.07" width="49.01" height="17.66" rx="8.14" transform="translate(-271.15 430.27) rotate(-70.52)"/><rect class="cls-1" x="95.1" y="260.86" width="49.01" height="17.66" rx="8.14" transform="translate(-174.53 292.52) rotate(-70.52)"/><rect class="cls-1" x="242.1" y="291.27" width="49.01" height="17.66" rx="8.14" transform="translate(-105.22 451.37) rotate(-70.52)"/><rect class="cls-1" x="249.46" y="350.48" width="49.01" height="17.66" rx="8.14" transform="translate(-156.14 497.76) rotate(-70.52)"/><rect class="cls-1" x="284.58" y="262.87" width="49.01" height="17.66" rx="8.14" transform="translate(-50.13 472.49) rotate(-70.52)"/><rect class="cls-1" x="171.27" y="178.02" width="49.01" height="17.66" rx="8.14" transform="matrix(0.33, -0.94, 0.94, 0.33, -45.67, 309.11)"/><rect class="cls-1" x="82.82" y="376.35" width="49.01" height="17.66" rx="8.14" transform="translate(-287.63 447.53) rotate(-83.4)"/><rect class="cls-1" x="212" y="247.68" width="49.01" height="17.66" rx="8.14" transform="translate(-20 493.01) rotate(-90)"/><rect class="cls-1" x="341.72" y="77.68" width="49.01" height="17.66" rx="8.14" transform="translate(279.72 452.73) rotate(-90)"/><rect class="cls-1" x="69.28" y="448.05" width="49.01" height="17.66" rx="8.14" transform="translate(-363.1 550.67) rotate(-90)"/><rect class="cls-1" x="16.61" y="482.77" width="49.01" height="17.66" rx="8.14" transform="translate(-413.03 298.94) rotate(-62.23)"/><rect class="cls-1" x="128.25" y="291.27" width="49.01" height="17.66" rx="8.14" transform="translate(-180.34 250.67) rotate(-54.58)"/><rect class="cls-1" x="319.55" y="260.86" width="49.01" height="17.66" rx="8.14" transform="translate(-75.12 393.78) rotate(-54.58)"/><rect class="cls-1" x="39.93" y="393.99" width="49.01" height="17.66" rx="8.14" transform="translate(-301.18 221.88) rotate(-54.58)"/><rect class="cls-1" x="249.46" y="223.17" width="49.01" height="17.66" rx="8.14" transform="translate(-73.88 320.81) rotate(-54.58)"/><rect class="cls-1" x="172.5" y="236.37" width="49.01" height="17.66" rx="8.14" transform="translate(-116.99 263.65) rotate(-54.58)"/><rect class="cls-1" x="177.2" y="316.22" width="49.01" height="17.66" rx="8.14" transform="translate(-154.7 186.06) rotate(-36.87)"/><path class="cls-2" d="M41.2,677.55a57.91,57.91,0,1,0,57.9,57.91A57.91,57.91,0,0,0,41.2,677.55Zm0,83c-11.3,0-20.46-11.24-20.46-25.09s9.16-25.1,20.46-25.1,20.46,11.24,20.46,25.1S52.5,760.55,41.2,760.55Z"/><path class="cls-3" d="M37.29,677.55c-30.2,0-54.67,25.27-54.67,56.44s24.47,56.44,54.67,56.44S92,765.16,92,734,67.48,677.55,37.29,677.55Zm0,92.29c-19.18,0-34.73-16.05-34.73-35.85s15.55-35.85,34.73-35.85S72,714.19,72,734,56.47,769.84,37.29,769.84Z"/><path class="cls-4" d="M-11.7,738.44l-.06-.67c0-.46-.06-.91-.08-1.37,0-.8-.06-1.6-.06-2.41,0-1,0-2.09.1-3.13v-.12c1.6-27,23.42-50.63,50.26-53.13l-2.09-.05c-29.28,0-53.76,26.25-53.76,56.43s23.83,56.44,53.1,56.44h2.75C12,788-9.56,764.85-11.7,738.44Z"/><path class="cls-4" d="M61.58,733.42a3,3,0,0,1,0,.31l0,.62c0,.37,0,.74,0,1.11s0,1,0,1.43v.05c-.58,12.37-8.35,22.35-18.14,23.5l-.19.11h1c10.68,0,19.36-11.26,19.36-25.09s-8.68-25.1-19.36-25.1h-1l.19.12C53.12,711.6,60.8,721.31,61.58,733.42Z"/><path class="cls-5" d="M1285.06,579.34a37.52,37.52,0,1,0,37.51,37.51A37.51,37.51,0,0,0,1285.06,579.34Zm0,53.77c-7.32,0-13.26-7.28-13.26-16.26s5.94-16.25,13.26-16.25,13.25,7.28,13.25,16.25S1292.38,633.11,1285.06,633.11Z"/><path class="cls-6" d="M1282.53,579.34c-19.56,0-35.42,16.37-35.42,36.57s15.86,36.56,35.42,36.56,35.41-16.37,35.41-36.56S1302.09,579.34,1282.53,579.34Zm0,59.79c-12.43,0-22.5-10.4-22.5-23.22s10.07-23.23,22.5-23.23,22.49,10.4,22.49,23.23S1295,639.13,1282.53,639.13Z"/><path class="cls-7" d="M1250.79,618.79l0-.44c0-.29,0-.59-.06-.88,0-.52,0-1,0-1.56,0-.68,0-1.36.06-2a.22.22,0,0,0,0-.08c1-17.47,15.17-32.8,32.55-34.41l-1.35,0c-19,0-34.82,17-34.82,36.56s15.43,36.56,34.4,36.56h1.77C1266.16,650.88,1252.18,635.9,1250.79,618.79Z"/><path class="cls-7" d="M1298.26,615.53c0,.07,0,.14,0,.2s0,.27,0,.41,0,.48,0,.71,0,.63,0,.93v0c-.38,8-5.41,14.48-11.75,15.22l-.13.07h.65c6.92,0,12.55-7.29,12.55-16.26s-5.63-16.25-12.55-16.25h-.65l.13.07C1292.78,601.4,1297.76,607.69,1298.26,615.53Z"/><circle class="cls-8" cx="1350.86" cy="81.72" r="38.68"/><path class="cls-9" d="M1323.25,97.69A38.65,38.65,0,0,1,1347,43.24a38.68,38.68,0,1,0,14.77,75.6A38.67,38.67,0,0,1,1323.25,97.69Z"/><path class="cls-10" d="M1350.86,43a34.4,34.4,0,0,0-3.9.2,42.82,42.82,0,0,0-5.52,2.08c22.78,0,41.25,20,41.25,42.82a41,41,0,0,1-7.4,23.56A38.67,38.67,0,0,0,1350.86,43Z"/><circle class="cls-6" cx="531.16" cy="62" r="25.48"/><path class="cls-11" d="M528.91,82.9A25.48,25.48,0,0,1,508,53.53a25.74,25.74,0,0,1,1.17-4.43,25.48,25.48,0,1,0,45.94,21.57A25.49,25.49,0,0,1,528.91,82.9Z"/><path class="cls-7" d="M510.6,47a22.42,22.42,0,0,0-1.41,2.15,29.37,29.37,0,0,0-1,3.74C517,40.73,534.86,38.72,547,47.58a27.09,27.09,0,0,1,9.64,13.11A25.48,25.48,0,0,0,510.6,47Z"/><path class="cls-3" d="M1184.55,178.37c18,28.47,2.33,48-6.88,53.27s-25.93-6.44-37.37-26.25-13.26-40.19-4-45.5S1167.83,151.89,1184.55,178.37Z"/><ellipse class="cls-2" cx="1156.96" cy="195.77" rx="19.24" ry="41.43" transform="matrix(0.87, -0.5, 0.5, 0.87, 57.12, 604.71)"/><path class="cls-12" d="M219.44,603.25c-3.7,6.48-21.42,3.32-39.57-7s-29.87-24-26.17-30.5l65.89-36.27Z"/><path class="cls-11" d="M203.73,605.79l15.86-76.35-.15,73.81C217.45,607.08,211.2,607.28,203.73,605.79Z"/><path class="cls-13" d="M167.13,587.6l52.46-58.16-60.1,51.08A67.31,67.31,0,0,0,167.13,587.6Z"/><path class="cls-8" d="M477,680.29c3.89,4.69-3.59,17.32-16.71,28.23s-26.92,16-30.81,11.27L420.66,659Z"/><path class="cls-9" d="M474.48,693l-53.82-34L477,680.29C479.39,682.91,477.76,687.74,474.48,693Z"/><path class="cls-10" d="M450.09,715.79,420.66,659l21.83,60.57A54.6,54.6,0,0,0,450.09,715.79Z"/><path class="cls-3" d="M1037.22,760.1c-36.64-32.75,9.19-88.57,47.13-57.41,7.18,8-6.89,20.95-13,15.9-9-7.37-17.19-4.67-23.08,2.49s-6.41,16.18,2,23.13S1044.39,766,1037.22,760.1Z"/><ellipse class="cls-4" cx="1043.74" cy="752.16" rx="10.28" ry="7.96" transform="translate(-199.9 1081.52) rotate(-50.61)"/><ellipse class="cls-4" cx="1077.83" cy="710.64" rx="10.28" ry="7.96" transform="translate(-155.37 1092.69) rotate(-50.61)"/><path class="cls-2" d="M1025.2,721.87c-.65,2.87-2,21,9.92,30-.8,3.49-.17,6.39,2.1,8.25C1030.44,753.89,1020,741.74,1025.2,721.87Z"/><path class="cls-2" d="M1049.17,720c6.78-7.6,11.76-9.18,19.74-6a6.75,6.75,0,0,0,2.39,4.62c-3.46-2.81-7.37-4.88-12.58-4.22C1055.55,714.77,1051.87,717.05,1049.17,720Z"/><path class="cls-2" d="M1053.86,694.27c6.48-1.29,17.61-2.16,30.49,8.42a5.9,5.9,0,0,0-3.56-1.43C1069.71,693.15,1059.74,693.25,1053.86,694.27Z"/><path class="cls-14" d="M1036,711.06a26.13,26.13,0,0,1,14.7-9.34,22.09,22.09,0,0,0-21,25.59A26.39,26.39,0,0,1,1036,711.06Z"/><path class="cls-6" d="M144.36,96.25c16.08,46.36-51,72.84-69,27.23C73,113,91.55,108.54,94.47,115.94c4.25,10.79,12.74,12.43,21.35,9s13.45-11,9.43-21.17S141,87.62,144.36,96.25Z"/><ellipse class="cls-7" cx="134.81" cy="100.02" rx="10.27" ry="7.95" transform="translate(-27.31 56.48) rotate(-21.54)"/><ellipse class="cls-7" cx="84.91" cy="119.71" rx="10.27" ry="7.95" transform="translate(-38.02 39.54) rotate(-21.54)"/><path class="cls-11" d="M136.29,135.45c2-2.19,11.91-17.34,5.89-31,2.39-2.66,3.25-5.49,2.18-8.21C147.26,105,150.47,120.63,136.29,135.45Z"/><path class="cls-11" d="M114.46,125.46c-9.61,3.34-14.72,2.31-20.15-4.33a6.72,6.72,0,0,0,.16-5.19c1.66,4.13,4.06,7.83,8.93,9.79C106.36,126.92,110.68,126.71,114.46,125.46Z"/><path class="cls-13" d="M97.89,145.63c-6.29-2-16.42-6.66-22.53-22.15a5.92,5.92,0,0,0,2.42,3C83.51,138.92,92.26,143.67,97.89,145.63Z"/><path class="cls-13" d="M121.61,139.63a26.09,26.09,0,0,1-17.37,1A22,22,0,0,0,135,128.51,26.29,26.29,0,0,1,121.61,139.63Z"/></svg>