<svg id="shapes" xmlns="http://www.w3.org/2000/svg" viewBox="0 0 1430.05 776.31"><defs><style>.cls-1,.cls-8{fill:#dda591;}.cls-1{stroke:#9b5545;stroke-miterlimit:10;stroke-width:2px;}.cls-2{fill:#64997f;}.cls-3{fill:#74a591;}.cls-4{fill:#89af9f;}.cls-5{fill:#0a6dc6;}.cls-6{fill:#167ddb;}.cls-7{fill:#2a91d1;}.cls-9{fill:#d39c8c;}.cls-10{fill:#e2af9f;}.cls-11{fill:#0e6ec4;}.cls-12{fill:#1e80d8;}.cls-13{fill:#278bd6;}.cls-14{fill:#7ea896;}</style></defs><rect class="cls-1" x="121.86" y="358.63" width="49.01" height="17.66" rx="8.14" transform="translate(-248.87 382.9) rotate(-70.52)"/><rect class="cls-1" x="238.7" y="176.18" width="49.01" height="17.66" rx="8.14" transform="translate(1.01 371.45) rotate(-70.52)"/><rect class="cls-1" x="319.55" y="204.78" width="49.01" height="17.66" rx="8.14" transform="translate(27.93 466.73) rotate(-70.52)"/><rect class="cls-1" x="284.58" y="113.28" width="49.01" height="17.66" rx="8.14" transform="translate(90.9 372.78) rotate(-70.52)"/><rect class="cls-1" x="351.52" y="128.96" width="49.01" height="17.66" rx="8.14" transform="translate(12.7 306.25) rotate(-45)"/><rect class="cls-1" x="306.12" y="151.21" width="49.01" height="17.66" rx="8.14" transform="translate(69.49 418.37) rotate(-70.52)"/><rect class="cls-1" x="144.22" y="398.07" width="49.01" height="17.66" rx="8.14" transform="translate(-271.15 430.27) rotate(-70.52)"/><rect class="cls-1" x="95.1" y="260.86" width="49.01" height="17.66" rx="8.14" transform="translate(-174.53 292.52) rotate(-70.52)"/><rect class="cls-1" x="242.1" y="291.27" width="49.01" height="17.66" rx="8.14" transform="translate(-105.22 451.37) rotate(-70.52)"/><rect class="cls-1" x="249.46" y="350.48" width="49.01" height="17.66" rx="8.14" transform="translate(-156.14 497.76) rotate(-70.52)"/><rect class="cls-1" x="284.58" y="262.87" width="49.01" height="17.66" rx="8.14" transform="translate(-50.13 472.49) rotate(-70.52)"/><rect class="cls-1" x="171.27" y="178.02" width="49.01" height="17.66" rx="8.14" transform="matrix(0.33, -0.94, 0.94, 0.33, -45.67, 309.11)"/><rect class="cls-1" x="82.82" y="376.35" width="49.01" height="17.66" rx="8.14" transform="translate(-287.63 447.53) rotate(-83.4)"/><rect class="cls-1" x="212" y="247.68" width="49.01" height="17.66" rx="8.14" transform="translate(-20 493.01) rotate(-90)"/><rect class="cls-1" x="341.72" y="77.68" width="49.01" height="17.66" rx="8.14" transform="translate(279.72 452.73) rotate(-90)"/><rect class="cls-1" x="69.28" y="448.05" width="49.01" height="17.66" rx="8.14" transform="translate(-363.1 550.67) rotate(-90)"/><rect class="cls-1" x="16.61" y="482.77" width="49.01" height="17.66" rx="8.14" transform="translate(-413.03 298.94) rotate(-62.23)"/><rect class="cls-1" x="128.25" y="291.27" width="49.01" height="17.66" rx="8.14" transform="translate(-180.34 250.67) rotate(-54.58)"/><rect class="cls-1" x="319.55" y="260.86" width="49.01" height="17.66" rx="8.14" transform="translate(-75.12 393.78) rotate(-54.58)"/><rect class="cls-1" x="39.93" y="393.99" width="49.01" height="17.66" rx="8.14" transform="translate(-301.18 221.88) rotate(-54.58)"/><rect class="cls-1" x="249.46" y="223.17" width="49.01" height="17.66" rx="8.14" transform="translate(-73.88 320.81) rotate(-54.58)"/><rect class="cls-1" x="172.5" y="236.37" width="49.01" height="17.66" rx="8.14" transform="translate(-116.99 263.65) rotate(-54.58)"/><rect class="cls-1" x="177.2" y="316.22" width="49.01" height="17.66" rx="8.14" transform="translate(-154.7 186.06) rotate(-36.87)"/><path class="cls-2" d="M70.16,651.5a57.91,57.91,0,1,0,57.9,57.91A57.91,57.91,0,0,0,70.16,651.5Zm0,83c-11.3,0-20.46-11.23-20.46-25.09s9.16-25.09,20.46-25.09,20.46,11.23,20.46,25.09S81.46,734.5,70.16,734.5Z"/><path class="cls-3" d="M66.25,651.5c-30.2,0-54.68,25.27-54.68,56.45s24.48,56.44,54.68,56.44,54.67-25.27,54.67-56.44S96.44,651.5,66.25,651.5Zm0,92.3c-19.18,0-34.73-16-34.73-35.85s15.55-35.86,34.73-35.86S101,688.14,101,708,85.43,743.8,66.25,743.8Z"/><path class="cls-4" d="M17.26,712.39l-.06-.67c0-.46-.06-.91-.08-1.37,0-.8-.06-1.6-.06-2.41,0-1.05,0-2.09.09-3.12a.49.49,0,0,0,0-.12c1.6-27,23.42-50.64,50.26-53.13l-2.09-.06c-29.28,0-53.76,26.26-53.76,56.43s23.83,56.45,53.1,56.45h2.75C41,761.93,19.4,738.8,17.26,712.39Z"/><path class="cls-4" d="M90.54,707.37c0,.1,0,.21,0,.31l0,.63c0,.36,0,.73,0,1.1s0,1,0,1.43v.06c-.59,12.36-8.35,22.35-18.14,23.49l-.19.11h1c10.68,0,19.36-11.25,19.36-25.09s-8.68-25.09-19.36-25.09h-1l.19.11C82.08,685.56,89.76,695.26,90.54,707.37Z"/><path class="cls-5" d="M950.54,685.12a30.59,30.59,0,1,0,30.59,30.59A30.59,30.59,0,0,0,950.54,685.12Zm0,43.84c-6,0-10.81-5.93-10.81-13.25s4.84-13.26,10.81-13.26,10.81,5.94,10.81,13.26S956.51,729,950.54,729Z"/><path class="cls-6" d="M948.48,685.12c-16,0-28.88,13.35-28.88,29.81s12.93,29.82,28.88,29.82,28.88-13.35,28.88-29.82S964.43,685.12,948.48,685.12Zm0,48.75c-10.13,0-18.35-8.48-18.35-18.94S938.35,696,948.48,696s18.34,8.48,18.34,18.94S958.61,733.87,948.48,733.87Z"/><path class="cls-7" d="M922.6,717.28l0-.35c0-.24,0-.48,0-.72,0-.43,0-.85,0-1.28s0-1.1,0-1.65a.13.13,0,0,0,0-.06c.84-14.25,12.37-26.75,26.55-28.07l-1.11,0c-15.46,0-28.39,13.87-28.39,29.81s12.58,29.82,28,29.82h1.45C935.13,743.45,923.73,731.23,922.6,717.28Z"/><path class="cls-7" d="M961.31,714.63a.86.86,0,0,1,0,.16c0,.11,0,.22,0,.33s0,.39,0,.59,0,.5,0,.76v0c-.31,6.54-4.41,11.81-9.58,12.41l-.1.06h.53c5.64,0,10.23-5.94,10.23-13.25s-4.59-13.26-10.23-13.26h-.53l.1.06C956.84,703.11,960.9,708.23,961.31,714.63Z"/><circle class="cls-8" cx="1318.84" cy="77.36" r="38.68"/><path class="cls-9" d="M1291.23,93.34a38.65,38.65,0,0,1,23.71-54.45,38.68,38.68,0,1,0,14.77,75.6A38.67,38.67,0,0,1,1291.23,93.34Z"/><path class="cls-10" d="M1318.84,38.69a34.4,34.4,0,0,0-3.9.2,42.24,42.24,0,0,0-5.51,2.08c22.77,0,41.24,20,41.24,42.82a41,41,0,0,1-7.4,23.56,38.67,38.67,0,0,0-24.43-68.66Z"/><circle class="cls-6" cx="531.16" cy="62" r="25.48"/><path class="cls-11" d="M528.91,82.9A25.48,25.48,0,0,1,508,53.53a25.74,25.74,0,0,1,1.17-4.43,25.48,25.48,0,1,0,45.94,21.57A25.49,25.49,0,0,1,528.91,82.9Z"/><path class="cls-7" d="M510.6,47a22.42,22.42,0,0,0-1.41,2.15,29.37,29.37,0,0,0-1,3.74C517,40.73,534.86,38.72,547,47.58a27.09,27.09,0,0,1,9.64,13.11A25.48,25.48,0,0,0,510.6,47Z"/><path class="cls-3" d="M1360.37,726.3c-22.92,13.19-37.71.27-41.58-7.12s5.89-20.15,21.81-28.49,32-9.09,35.84-1.7S1381.7,714,1360.37,726.3Z"/><ellipse class="cls-2" cx="1347.61" cy="704.08" rx="32.54" ry="15.11" transform="translate(-172.85 705.35) rotate(-27.63)"/><path class="cls-12" d="M260.81,603.23c-3.7,6.48-21.42,3.33-39.57-7s-29.87-24-26.17-30.5L261,529.42Z"/><path class="cls-11" d="M245.11,605.77,261,529.42l-.15,73.81C258.82,607.06,252.58,607.26,245.11,605.77Z"/><path class="cls-13" d="M208.5,587.58,261,529.42l-60.1,51.08A68.17,68.17,0,0,0,208.5,587.58Z"/><path class="cls-8" d="M477,680.29c3.89,4.69-3.59,17.32-16.71,28.23s-26.92,16-30.81,11.27L420.66,659Z"/><path class="cls-9" d="M474.48,693l-53.82-34L477,680.29C479.39,682.91,477.76,687.74,474.48,693Z"/><path class="cls-10" d="M450.09,715.79,420.66,659l21.83,60.57A54.6,54.6,0,0,0,450.09,715.79Z"/><path class="cls-3" d="M1061.48,192.6c-36.63-32.76,9.19-88.57,47.14-57.42,7.18,8-6.9,20.95-13,15.9-9-7.37-17.2-4.67-23.08,2.49s-6.42,16.18,2,23.13S1068.66,198.49,1061.48,192.6Z"/><ellipse class="cls-4" cx="1068.01" cy="184.65" rx="10.28" ry="7.96" transform="translate(247.57 892.89) rotate(-50.61)"/><ellipse class="cls-4" cx="1102.1" cy="143.13" rx="10.28" ry="7.96" transform="translate(292.11 904.07) rotate(-50.61)"/><path class="cls-2" d="M1049.47,154.36c-.65,2.87-2,21,9.92,30-.8,3.5-.17,6.4,2.09,8.26C1054.71,186.39,1044.27,174.23,1049.47,154.36Z"/><path class="cls-2" d="M1073.44,152.48c6.78-7.6,11.76-9.18,19.74-6a6.75,6.75,0,0,0,2.39,4.62c-3.46-2.81-7.37-4.88-12.59-4.22C1079.82,147.26,1076.14,149.54,1073.44,152.48Z"/><path class="cls-2" d="M1078.13,126.76c6.48-1.29,17.61-2.15,30.49,8.42a5.92,5.92,0,0,0-3.57-1.43C1094,125.64,1084,125.74,1078.13,126.76Z"/><path class="cls-14" d="M1060.28,143.55a26.19,26.19,0,0,1,14.71-9.34,22.1,22.1,0,0,0-21,25.59A26.46,26.46,0,0,1,1060.28,143.55Z"/><path class="cls-8" d="M1151.09,630.7c23.47-58.43,110.71-27.57,89.73,31.74-6.5,12.13-28.25.83-24.85-8.79,5-14-1.87-22.76-13.07-26.72s-22.29-.67-27,12.56S1147.12,641.92,1151.09,630.7Z"/><ellipse class="cls-10" cx="1163.51" cy="635.09" rx="10.2" ry="13.18" transform="translate(176.76 1520.2) rotate(-70.52)"/><ellipse class="cls-10" cx="1228.4" cy="658.04" rx="10.2" ry="13.18" transform="translate(198.37 1596.67) rotate(-70.52)"/><path class="cls-9" d="M1191.91,599.54c-3.74.47-26.13,6.75-31.8,25-4.55.56-7.77,2.58-9,6.12C1155.61,619.82,1165.7,601.94,1191.91,599.54Z"/><path class="cls-9" d="M1204.63,627.6c12.12,4.85,16.2,10.16,15.87,21.16a8.6,8.6,0,0,0-4.53,4.89c1.87-5.4,2.66-11-.4-17C1213.71,633,1209.35,629.57,1204.63,627.6Z"/><path class="cls-9" d="M1237.66,622c4.39,7.25,10.28,20.28,3.16,40.42a7.62,7.62,0,0,0,.17-4.93C1245.93,640.63,1241.46,628.66,1237.66,622Z"/><path class="cls-10" d="M1209.65,607.86a33.55,33.55,0,0,1,17.67,13.64c-2.16-6.07-8.15-13-16.81-16.1s-17.69-1.41-23.18,2A33.78,33.78,0,0,1,1209.65,607.86Z"/><path class="cls-6" d="M144.36,96.25c16.08,46.36-51,72.84-69,27.23C73,113,91.55,108.54,94.47,115.94c4.25,10.79,12.74,12.43,21.35,9s13.45-11,9.43-21.17S141,87.62,144.36,96.25Z"/><ellipse class="cls-7" cx="134.81" cy="100.02" rx="10.27" ry="7.95" transform="translate(-27.31 56.48) rotate(-21.54)"/><ellipse class="cls-7" cx="84.91" cy="119.71" rx="10.27" ry="7.95" transform="translate(-38.02 39.54) rotate(-21.54)"/><path class="cls-11" d="M136.29,135.45c2-2.19,11.91-17.34,5.89-31,2.39-2.66,3.25-5.49,2.18-8.21C147.26,105,150.47,120.63,136.29,135.45Z"/><path class="cls-11" d="M114.46,125.46c-9.61,3.34-14.72,2.31-20.15-4.33a6.72,6.72,0,0,0,.16-5.19c1.66,4.13,4.06,7.83,8.93,9.79C106.36,126.92,110.68,126.71,114.46,125.46Z"/><path class="cls-13" d="M97.89,145.63c-6.29-2-16.42-6.66-22.53-22.15a5.92,5.92,0,0,0,2.42,3C83.51,138.92,92.26,143.67,97.89,145.63Z"/><path class="cls-13" d="M121.61,139.63a26.09,26.09,0,0,1-17.37,1A22,22,0,0,0,135,128.51,26.29,26.29,0,0,1,121.61,139.63Z"/></svg>