<svg xmlns="http://www.w3.org/2000/svg" viewBox="0 0 69.06 68.66"><defs><style>.cls-1{fill:#0a6dc6;}.cls-2{fill:#167ddb;}.cls-3{fill:#2a91d1;}</style></defs><g id="shapes"><path class="cls-1" d="M34.73,0A34.33,34.33,0,1,0,69.06,34.33,34.33,34.33,0,0,0,34.73,0Zm0,49.2C28,49.2,22.6,42.54,22.6,34.33S28,19.45,34.73,19.45s12.13,6.66,12.13,14.88S41.43,49.2,34.73,49.2Z"/><path class="cls-2" d="M32.42,0C14.51,0,0,15,0,33.46S14.51,66.92,32.42,66.92s32.41-15,32.41-33.46S50.32,0,32.42,0Zm0,54.72C21,54.72,11.83,45.2,11.83,33.46S21,12.2,32.42,12.2,53,21.72,53,33.46,43.79,54.72,32.42,54.72Z"/><path class="cls-3" d="M3.37,36.1l0-.4c0-.27,0-.54,0-.81,0-.48,0-1,0-1.43s0-1.24.06-1.86v-.07c.95-16,13.89-30,29.8-31.5L31.87,0C14.51,0,0,15.57,0,33.46S14.12,66.92,31.48,66.92h1.63C17.43,65.47,4.64,51.75,3.37,36.1Z"/><path class="cls-3" d="M46.82,33.12c0,.06,0,.12,0,.18s0,.25,0,.37,0,.44,0,.66,0,.57,0,.85v0c-.35,7.33-5,13.25-10.75,13.93L36,49.2h.6c6.33,0,11.48-6.67,11.48-14.87S42.9,19.45,36.57,19.45H36l.12.07C41.8,20.19,46.36,25.94,46.82,33.12Z"/></g></svg>