<svg xmlns="http://www.w3.org/2000/svg" viewBox="0 0 130.74 129.97"><defs><style>.cls-1{fill:#64997f;}.cls-2{fill:#74a591;}.cls-3{fill:#89af9f;}</style></defs><g id="shapes"><path class="cls-1" d="M65.75,0a65,65,0,1,0,65,65A65,65,0,0,0,65.75,0Zm0,93.15c-12.68,0-23-12.6-23-28.16s10.29-28.16,23-28.16,23,12.61,23,28.16S78.43,93.14,65.75,93.14Z"/><path class="cls-2" d="M61.36,0C27.47,0,0,28.35,0,63.34s27.47,63.34,61.36,63.34,61.36-28.36,61.36-63.34S95.25,0,61.36,0Zm0,103.59c-21.52,0-39-18-39-40.24s17.46-40.24,39-40.24,39,18,39,40.24S82.89,103.58,61.36,103.58Z"/><path class="cls-3" d="M6.38,68.33c0-.25,0-.5-.06-.76,0-.51-.07-1-.1-1.53q-.06-1.35-.06-2.7c0-1.18,0-2.35.1-3.51a.66.66,0,0,0,0-.14C8.06,29.43,32.55,2.86,62.67.06L60.33,0C27.47,0,0,29.47,0,63.34s26.74,63.34,59.6,63.34h3.07C33,123.93,8.78,98,6.38,68.33Z"/><path class="cls-3" d="M88.63,62.69c0,.12,0,.23,0,.35s0,.47,0,.7c0,.41,0,.83,0,1.24s0,1.08,0,1.61v.06C88,80.53,79.3,91.73,68.31,93l-.21.12h1.12C81.2,93.14,91,80.51,91,65S81.2,36.82,69.22,36.82H68.1l.21.13C79.14,38.21,87.75,49.1,88.63,62.69Z"/></g></svg>