<svg id="Text" xmlns="http://www.w3.org/2000/svg" viewBox="0 0 1430.05 776.31"><defs><style>.cls-1{fill:#dda591;}.cls-2{fill:#e2dfea;}</style></defs><rect class="cls-1" x="715.03" y="295.69" width="715.03" height="144.07"/><rect class="cls-1" x="715.03" y="465.53" width="715.03" height="54.03"/><path class="cls-2" d="M804.73,319.28h24.74v96.89H804.73V377H765.15v39.17H740.42V319.28h24.73v37.66h39.58Z"/><path class="cls-2" d="M847.06,416.17V319.28h68.85V338.8H871.66v18.41h41.5v19.38h-41.5v20.07h44.25v19.51Z"/><path class="cls-2" d="M929.1,416.17V319.28h25.29v76.41h41.23v20.48Z"/><path class="cls-2" d="M1007.71,416.17V319.28H1033v76.41h41.23v20.48Z"/><path class="cls-2" d="M1101,411.29A41.63,41.63,0,0,1,1084.12,394q-5.91-11.21-5.91-26.32t5.91-26.32A41.37,41.37,0,0,1,1101,324.09q10.92-6,25.77-6t25.76,6a41,41,0,0,1,16.77,17.25q5.84,11.21,5.84,26.32T1169.19,394a41.67,41.67,0,0,1-16.83,17.31q-10.93,6.12-25.63,6.12Q1111.88,417.41,1101,411.29Zm42.94-21q6.19-7.77,6.19-22.61t-6.25-22.54q-6.25-7.69-17.11-7.7-11,0-17.18,7.63t-6.19,22.61q0,15,6.19,22.67t17.18,7.7Q1137.71,398,1143.9,390.27Z"/><path class="cls-2" d="M741.09,505.46v-31h8.09v31Z"/><path class="cls-2" d="M762,474.44v5.06a12.6,12.6,0,0,1-1,5.11,15.68,15.68,0,0,1-3.43,4.66l-3-2.33a10.68,10.68,0,0,0,3-4.49h-3.7v-8Z"/><path class="cls-2" d="M799.5,485.57q1.82,2.3,1.82,7v12.85h-7.83V492.83a4.94,4.94,0,0,0-.57-2.72,2.12,2.12,0,0,0-1.89-.84,2.92,2.92,0,0,0-2.49,1.14,5.38,5.38,0,0,0-.86,3.26v11.79h-7.83V492.83a4.94,4.94,0,0,0-.57-2.72,2.12,2.12,0,0,0-1.89-.84,2.87,2.87,0,0,0-2.47,1.14,5.53,5.53,0,0,0-.83,3.26v11.79h-7.84V483.81h7.62v2.73a7.35,7.35,0,0,1,6.6-3.25c3.11,0,5.2,1.27,6.29,3.82a8,8,0,0,1,3-2.81,8.46,8.46,0,0,1,4.12-1Q797.67,483.29,799.5,485.57Z"/><path class="cls-2" d="M835.75,485.64q2.44,2.36,2.44,7.33v12.49h-7.34v-3a5,5,0,0,1-2.07,2.48,6.48,6.48,0,0,1-3.48.9,9,9,0,0,1-4-.9,7,7,0,0,1-2.83-2.51,6.56,6.56,0,0,1-1-3.63,5.47,5.47,0,0,1,1.21-3.71,7.08,7.08,0,0,1,3.85-2,32.83,32.83,0,0,1,7.13-.61h1.19v-.53a2.88,2.88,0,0,0-.75-2.27,4.18,4.18,0,0,0-2.64-.63,11.87,11.87,0,0,0-3.45.59,20,20,0,0,0-3.68,1.52l-2-5.15a18.54,18.54,0,0,1,4.73-1.91,19.75,19.75,0,0,1,5.22-.77Q833.31,483.29,835.75,485.64Zm-6,13.82a4.17,4.17,0,0,0,1-2.89v-.52h-.71a11.17,11.17,0,0,0-4,.5,1.75,1.75,0,0,0-1.19,1.7,2.33,2.33,0,0,0,.64,1.67,2.21,2.21,0,0,0,1.65.66A3.37,3.37,0,0,0,829.75,499.46Z"/><path class="cls-2" d="M878.1,474.44v31h-7.7v-2.95a6.25,6.25,0,0,1-2.7,2.42,9.27,9.27,0,0,1-8.89-.55,9.58,9.58,0,0,1-3.41-4,13.71,13.71,0,0,1-1.23-5.94,13.46,13.46,0,0,1,1.21-5.88,9.07,9.07,0,0,1,3.38-3.89,9.24,9.24,0,0,1,5-1.36,8.74,8.74,0,0,1,3.8.83,6.8,6.8,0,0,1,2.71,2.25V474.44Zm-8.8,24.11a6.44,6.44,0,0,0,1.1-4,6.34,6.34,0,0,0-1.1-4,3.81,3.81,0,0,0-3.17-1.38A3.77,3.77,0,0,0,863,490.5a6.14,6.14,0,0,0-1.1,3.92,6.55,6.55,0,0,0,1.12,4.09,3.69,3.69,0,0,0,3.1,1.45A3.78,3.78,0,0,0,869.3,498.55Z"/><path class="cls-2" d="M902.65,496.13H889.28a4.64,4.64,0,0,0,1.54,3,5.39,5.39,0,0,0,3.39.92,10.67,10.67,0,0,0,6.11-2l2,5.15a12.68,12.68,0,0,1-3.91,1.87,15.84,15.84,0,0,1-4.58.68,14.32,14.32,0,0,1-6.47-1.36,9.72,9.72,0,0,1-4.2-3.92,11.76,11.76,0,0,1-1.47-6,12.16,12.16,0,0,1,1.38-5.83,10,10,0,0,1,3.87-4,11,11,0,0,1,5.61-1.43,9.56,9.56,0,0,1,7.4,3,11.56,11.56,0,0,1,2.72,8.11Zm-13.46-3.69h6.91c-.18-2.58-1.29-3.87-3.35-3.87S889.48,489.86,889.19,492.44Z"/><path class="cls-2" d="M909.17,505.15a13.08,13.08,0,0,1-4.45-1.93l2-5.33a15.2,15.2,0,0,0,4,1.83,14.92,14.92,0,0,0,4.31.68,4.28,4.28,0,0,0,2-.37,1.15,1.15,0,0,0,.7-1,1,1,0,0,0-.51-.88,8.35,8.35,0,0,0-2-.66l-3.48-.79a9.7,9.7,0,0,1-4.75-2.2,5.57,5.57,0,0,1-1.45-4.13,5.89,5.89,0,0,1,1.23-3.68,7.82,7.82,0,0,1,3.45-2.48,13.59,13.59,0,0,1,5-.88,16.09,16.09,0,0,1,4.64.68,15.68,15.68,0,0,1,4.21,1.91L922,491a16.36,16.36,0,0,0-3.54-1.7,10.83,10.83,0,0,0-3.37-.59,4.14,4.14,0,0,0-2,.39,1.27,1.27,0,0,0-.7,1.15.85.85,0,0,0,.44.72,4.92,4.92,0,0,0,1.54.55l3.65.84a9.81,9.81,0,0,1,5,2.31,5.78,5.78,0,0,1,1.54,4.25A5.89,5.89,0,0,1,922,504a11.93,11.93,0,0,1-7.06,1.84A23.66,23.66,0,0,1,909.17,505.15Z"/><path class="cls-2" d="M927.6,473h8.18v7.08H927.6Zm.18,32.47V483.81h7.83v21.65Z"/><path class="cls-2" d="M963.24,483.81v19q0,5.37-3.19,8.14t-9.44,2.77a23.63,23.63,0,0,1-5.72-.68,16.7,16.7,0,0,1-4.79-1.91l2-5.33a19.54,19.54,0,0,0,4.2,1.63,16.24,16.24,0,0,0,4.11.57,5.62,5.62,0,0,0,3.85-1.12,4.52,4.52,0,0,0,1.26-3.54v-1.67a6.66,6.66,0,0,1-2.78,2.31,9,9,0,0,1-3.91.86,9.57,9.57,0,0,1-5-1.32,9,9,0,0,1-3.43-3.77,12.37,12.37,0,0,1-1.23-5.65,12.59,12.59,0,0,1,1.23-5.68,9,9,0,0,1,3.43-3.8,9.4,9.4,0,0,1,5-1.34,8.91,8.91,0,0,1,4,.88,6.56,6.56,0,0,1,2.77,2.42v-2.78ZM954.4,497.7a5.26,5.26,0,0,0,1.14-3.59,5.41,5.41,0,0,0-1.14-3.65,4,4,0,0,0-3.22-1.32,4,4,0,0,0-3.16,1.3,5.33,5.33,0,0,0-1.15,3.67A5.17,5.17,0,0,0,948,497.7a4,4,0,0,0,3.14,1.29A4.09,4.09,0,0,0,954.4,497.7Z"/><path class="cls-2" d="M988.14,485.6c1.26,1.54,1.9,3.88,1.9,7v12.85H982.2V493a4.61,4.61,0,0,0-.68-2.82,2.41,2.41,0,0,0-2-.88,3.61,3.61,0,0,0-2.8,1.12,4.29,4.29,0,0,0-1,3v12h-7.83V483.81h7.61v2.91a7.34,7.34,0,0,1,3-2.55,8.93,8.93,0,0,1,4-.88Q986.25,483.29,988.14,485.6Z"/><path class="cls-2" d="M1014.41,496.13H1001a4.59,4.59,0,0,0,1.54,3,5.37,5.37,0,0,0,3.38.92,10.67,10.67,0,0,0,6.12-2l2,5.15a12.74,12.74,0,0,1-3.92,1.87,15.72,15.72,0,0,1-4.57.68,14.29,14.29,0,0,1-6.47-1.36,9.72,9.72,0,0,1-4.2-3.92,11.66,11.66,0,0,1-1.48-6,12.16,12.16,0,0,1,1.39-5.83,9.87,9.87,0,0,1,3.87-4,11,11,0,0,1,5.61-1.43,9.54,9.54,0,0,1,7.39,3q2.73,3,2.73,8.11ZM1001,492.44h6.91q-.27-3.87-3.35-3.87T1001,492.44Z"/><path class="cls-2" d="M1034.65,489.67l-4.27.44a5.49,5.49,0,0,0-3.56,1.36,4.42,4.42,0,0,0-1,3.12v10.87H1018V483.81h7.44v3.74a5.77,5.77,0,0,1,2.47-3,8.88,8.88,0,0,1,4.17-1.17l2.16-.17Z"/><path class="cls-2" d="M1071.3,505.46l-3-2.81a15.35,15.35,0,0,1-15.09,2,9.48,9.48,0,0,1-4-3.14,7.78,7.78,0,0,1-1.45-4.62,8.7,8.7,0,0,1,1.37-4.84,12.33,12.33,0,0,1,4.31-3.83,9.09,9.09,0,0,1-2.77-6.21,7.21,7.21,0,0,1,1.21-4.13,7.88,7.88,0,0,1,3.38-2.8,11.89,11.89,0,0,1,5-1,9.33,9.33,0,0,1,6.27,2,6.65,6.65,0,0,1,2.36,5.34q0,4.75-5.28,7.75l4.49,4.26a20.1,20.1,0,0,0,1.89-7.26h6.38a25.88,25.88,0,0,1-1.1,6.23,22.1,22.1,0,0,1-2.51,5.43l7.92,7.57Zm-7.3-7-6.51-6.2a5.05,5.05,0,0,0-2.2,4.18,3.22,3.22,0,0,0,1.14,2.59,4.44,4.44,0,0,0,3,1A7.72,7.72,0,0,0,1064,498.42Zm-5.68-18.48a2.8,2.8,0,0,0-.75,2.07,3.11,3.11,0,0,0,.42,1.54,9.59,9.59,0,0,0,1.56,1.89,7.73,7.73,0,0,0,2.47-1.71,3.06,3.06,0,0,0,.75-2,2.47,2.47,0,0,0-.69-1.8,2.3,2.3,0,0,0-1.73-.71A2.75,2.75,0,0,0,1058.32,479.94Z"/><path class="cls-2" d="M1121.46,483.81H1129L1120,505.46h-6.43l-4.31-10.6-4,10.6h-6.47l-9.06-21.65h7.92l4.8,12.28,4.66-12.28h5l4.7,12.5Z"/><path class="cls-2" d="M1150.33,496.13H1137a4.64,4.64,0,0,0,1.54,3,5.39,5.39,0,0,0,3.39.92,10.67,10.67,0,0,0,6.11-2l2,5.15a12.68,12.68,0,0,1-3.91,1.87,15.79,15.79,0,0,1-4.58.68,14.32,14.32,0,0,1-6.47-1.36,9.77,9.77,0,0,1-4.2-3.92,11.76,11.76,0,0,1-1.47-6,12.16,12.16,0,0,1,1.38-5.83,10,10,0,0,1,3.88-4,10.94,10.94,0,0,1,5.61-1.43,9.54,9.54,0,0,1,7.39,3q2.73,3,2.73,8.11Zm-13.47-3.69h6.91q-.27-3.87-3.34-3.87C1138.34,488.57,1137.16,489.86,1136.86,492.44Z"/><path class="cls-2" d="M1173.21,484.65a9.23,9.23,0,0,1,3.36,3.89,13.46,13.46,0,0,1,1.21,5.88,13.85,13.85,0,0,1-1.21,5.94,9.4,9.4,0,0,1-3.39,4,9.25,9.25,0,0,1-8.88.55,6.28,6.28,0,0,1-2.71-2.42v2.95h-7.7v-31h7.83v11.93a6.8,6.8,0,0,1,2.71-2.25,8.74,8.74,0,0,1,3.8-.83A9.12,9.12,0,0,1,1173.21,484.65Zm-4.27,13.88a6.64,6.64,0,0,0,1.1-4.11,6.2,6.2,0,0,0-1.08-3.92,3.71,3.71,0,0,0-3.1-1.36,3.81,3.81,0,0,0-3.17,1.38,6.34,6.34,0,0,0-1.1,4,6.44,6.44,0,0,0,1.1,4,4.15,4.15,0,0,0,6.25,0Z"/><path class="cls-2" d="M1216.9,474.44v31h-7.7v-2.95a6.28,6.28,0,0,1-2.71,2.42,9.27,9.27,0,0,1-8.89-.55,9.58,9.58,0,0,1-3.41-4,13.71,13.71,0,0,1-1.23-5.94,13.46,13.46,0,0,1,1.21-5.88,8.92,8.92,0,0,1,8.38-5.25,8.78,8.78,0,0,1,3.81.83,6.8,6.8,0,0,1,2.71,2.25V474.44Zm-8.8,24.11a6.44,6.44,0,0,0,1.1-4,6.34,6.34,0,0,0-1.1-4,3.82,3.82,0,0,0-3.17-1.38,3.77,3.77,0,0,0-3.12,1.36,6.08,6.08,0,0,0-1.1,3.92,6.55,6.55,0,0,0,1.12,4.09,3.69,3.69,0,0,0,3.1,1.45A3.79,3.79,0,0,0,1208.1,498.55Z"/><path class="cls-2" d="M1241.45,496.13h-13.38a4.68,4.68,0,0,0,1.54,3,5.41,5.41,0,0,0,3.39.92,10.73,10.73,0,0,0,6.12-2l2,5.15a12.74,12.74,0,0,1-3.92,1.87,15.72,15.72,0,0,1-4.57.68,14.29,14.29,0,0,1-6.47-1.36,9.72,9.72,0,0,1-4.2-3.92,11.66,11.66,0,0,1-1.48-6,12,12,0,0,1,1.39-5.83,9.87,9.87,0,0,1,3.87-4,11,11,0,0,1,5.61-1.43,9.54,9.54,0,0,1,7.39,3q2.73,3,2.73,8.11ZM1228,492.44h6.9c-.17-2.58-1.29-3.87-3.34-3.87S1228.28,489.86,1228,492.44Z"/><path class="cls-2" d="M1259.31,483.86H1267l-9.64,21.6h-6.46l-9.51-21.6h8.18l4.76,12.19Z"/><path class="cls-2" d="M1287.83,496.13h-13.38a4.64,4.64,0,0,0,1.54,3,5.39,5.39,0,0,0,3.39.92,10.67,10.67,0,0,0,6.11-2l2,5.15a12.68,12.68,0,0,1-3.91,1.87,15.79,15.79,0,0,1-4.58.68,14.32,14.32,0,0,1-6.47-1.36,9.72,9.72,0,0,1-4.2-3.92,11.76,11.76,0,0,1-1.47-6,12.16,12.16,0,0,1,1.38-5.83,10,10,0,0,1,3.88-4,10.94,10.94,0,0,1,5.61-1.43,9.55,9.55,0,0,1,7.39,3q2.73,3,2.73,8.11Zm-13.47-3.69h6.91q-.27-3.87-3.34-3.87T1274.36,492.44Z"/><path class="cls-2" d="M1291.39,505.46v-31h7.83v31Z"/><path class="cls-2" d="M1308.39,504.43a10.06,10.06,0,0,1-4.18-3.94,12.88,12.88,0,0,1,0-11.95,10,10,0,0,1,4.16-3.89,15.25,15.25,0,0,1,12.59,0,9.87,9.87,0,0,1,4.15,3.89,12.8,12.8,0,0,1,0,11.95,10,10,0,0,1-4.15,3.94,15,15,0,0,1-12.57,0Zm10.45-9.92q0-5.46-4.18-5.46c-2.78,0-4.18,1.82-4.18,5.46s1.4,5.45,4.18,5.45S1318.84,498.14,1318.84,494.51Z"/><path class="cls-2" d="M1349.45,484.72a9.38,9.38,0,0,1,3.38,4,13.85,13.85,0,0,1,1.21,5.94,13.46,13.46,0,0,1-1.21,5.88,8.83,8.83,0,0,1-8.33,5.25,8.64,8.64,0,0,1-3.81-.83,6.8,6.8,0,0,1-2.71-2.25v10.65h-7.83V483.81h7.7v2.78a6.28,6.28,0,0,1,2.71-2.42,9.27,9.27,0,0,1,8.89.55Zm-4.23,13.88a6.2,6.2,0,0,0,1.08-3.92,6.64,6.64,0,0,0-1.1-4.11,4.15,4.15,0,0,0-6.25,0,6.46,6.46,0,0,0-1.1,4,6.32,6.32,0,0,0,1.1,4,3.81,3.81,0,0,0,3.17,1.38A3.71,3.71,0,0,0,1345.22,498.6Z"/><path class="cls-2" d="M1377.63,496.13h-13.38a4.68,4.68,0,0,0,1.54,3,5.39,5.39,0,0,0,3.39.92,10.67,10.67,0,0,0,6.11-2l2,5.15a12.85,12.85,0,0,1-3.92,1.87,15.79,15.79,0,0,1-4.58.68,14.25,14.25,0,0,1-6.46-1.36,9.8,9.8,0,0,1-4.21-3.92,11.76,11.76,0,0,1-1.47-6,12,12,0,0,1,1.39-5.83,9.87,9.87,0,0,1,3.87-4,10.94,10.94,0,0,1,5.61-1.43,9.54,9.54,0,0,1,7.39,3q2.73,3,2.73,8.11Zm-13.47-3.69h6.91c-.17-2.58-1.29-3.87-3.34-3.87S1364.46,489.86,1364.16,492.44Z"/><path class="cls-2" d="M1397.87,489.67l-4.27.44a5.54,5.54,0,0,0-3.57,1.36,4.47,4.47,0,0,0-1,3.12v10.87h-7.83V483.81h7.44v3.74a5.75,5.75,0,0,1,2.46-3,8.92,8.92,0,0,1,4.18-1.17l2.16-.17Z"/></svg>